<svg width="164" height="43" viewBox="0 0 164 43" fill="none" xmlns="http://www.w3.org/2000/svg">
<path d="M50.8494 20.5311V6.26147H54.236C55.185 6.26147 56.003 6.37682 56.6574 6.6075C57.3119 6.83819 57.819 7.23365 58.1626 7.77741C58.5062 8.33765 58.6862 9.07914 58.6862 10.0348C58.6862 10.6116 58.6371 11.1224 58.5225 11.5837C58.408 12.0451 58.2444 12.4406 57.9826 12.7536C57.7372 13.0832 57.3773 13.3304 56.9356 13.4951L58.9152 20.5311H56.3302L54.6123 13.9895H53.418V20.5311H50.8494ZM53.4344 12.3582H54.236C54.7432 12.3582 55.1359 12.2923 55.4304 12.144C55.7249 11.9957 55.9376 11.765 56.0684 11.4354C56.1993 11.1059 56.2648 10.6939 56.2648 10.1996C56.2648 9.49108 56.1339 8.94732 55.8721 8.58481C55.6103 8.22231 55.1032 8.04106 54.3833 8.04106H53.4344V12.3582Z" fill="white"/>
<path d="M63.5781 20.6957C62.8255 20.6957 62.2038 20.5474 61.7293 20.2673C61.2548 19.9871 60.8949 19.5587 60.6658 18.9985C60.4368 18.4383 60.3223 17.7627 60.3223 16.9882V13.9234C60.3223 13.116 60.4368 12.4239 60.6658 11.8802C60.8949 11.3199 61.2548 10.908 61.7293 10.6279C62.2201 10.3478 62.8255 10.1995 63.5781 10.1995C64.3797 10.1995 65.0178 10.3478 65.4595 10.6608C65.9013 10.9739 66.2285 11.4023 66.4248 11.9955C66.6212 12.5887 66.7193 13.2808 66.7193 14.1211V15.5712H62.6782V17.5814C62.6782 17.911 62.7109 18.1746 62.7764 18.3888C62.8418 18.603 62.94 18.7513 63.0872 18.8502C63.2345 18.9491 63.3981 18.9985 63.5944 18.9985C63.8071 18.9985 63.9707 18.9491 64.1016 18.8502C64.2325 18.7513 64.3307 18.603 64.3797 18.4053C64.4452 18.2076 64.4615 17.9604 64.4615 17.6803V16.8399H66.6866V17.532C66.6866 18.5701 66.4248 19.361 65.9176 19.9048C65.3941 20.4156 64.6251 20.6957 63.5781 20.6957ZM62.6782 14.3683H64.4615V13.3961C64.4615 13.0501 64.4288 12.7535 64.3797 12.5393C64.3143 12.3251 64.2325 12.1603 64.1016 12.0614C63.9707 11.9626 63.7907 11.9131 63.5617 11.9131C63.349 11.9131 63.1854 11.9626 63.0545 12.0779C62.9236 12.1768 62.8255 12.358 62.7764 12.6052C62.7109 12.8524 62.6946 13.1984 62.6946 13.6598V14.3683H62.6782Z" fill="white"/>
<path d="M68.3062 20.5312V10.348H70.5967V11.2213C70.9402 10.8423 71.3329 10.5787 71.7419 10.3974C72.1509 10.2327 72.56 10.1338 72.9853 10.1338C73.378 10.1338 73.7216 10.2327 74.0324 10.4304C74.3269 10.6281 74.556 10.9412 74.6869 11.3861C75.0795 10.9412 75.4722 10.6116 75.9139 10.4304C76.3393 10.2327 76.781 10.1338 77.2391 10.1338C77.5991 10.1338 77.9263 10.2327 78.2044 10.4139C78.4826 10.5952 78.7116 10.8588 78.8752 11.2213C79.0388 11.5838 79.1206 12.0287 79.1206 12.5725V20.5147H76.8465V12.7867C76.8465 12.3912 76.781 12.1276 76.6501 11.9793C76.5193 11.831 76.3393 11.7651 76.1102 11.7651C75.9303 11.7651 75.7176 11.8145 75.4885 11.9298C75.2595 12.0452 75.0468 12.177 74.8668 12.3747C74.8668 12.4077 74.8668 12.4407 74.8668 12.4736C74.8668 12.5066 74.8668 12.5395 74.8668 12.589V20.5312H72.609V12.8032C72.609 12.4077 72.5436 12.1441 72.4127 11.9958C72.2818 11.8475 72.1019 11.7815 71.8564 11.7815C71.6765 11.7815 71.4638 11.831 71.2511 11.9463C71.022 12.0452 70.8257 12.1935 70.613 12.3912V20.5476H68.3062V20.5312Z" fill="white"/>
<path d="M83.9308 20.6957C83.1946 20.6957 82.5893 20.5639 82.1148 20.2837C81.6403 20.0036 81.2804 19.6082 81.035 19.0809C80.7896 18.5536 80.675 17.911 80.675 17.153V13.7421C80.675 12.9842 80.7896 12.358 81.035 11.8143C81.2804 11.287 81.6403 10.8915 82.1148 10.6114C82.5893 10.3313 83.1946 10.1995 83.9308 10.1995C84.6671 10.1995 85.2724 10.3313 85.7632 10.6114C86.2541 10.8915 86.614 11.287 86.8431 11.8143C87.0885 12.3415 87.203 12.9842 87.203 13.7421V17.153C87.203 17.911 87.0885 18.5371 86.8431 19.0809C86.5977 19.6082 86.2377 20.0201 85.7632 20.2837C85.2724 20.5639 84.6671 20.6957 83.9308 20.6957ZM83.9472 19.0479C84.209 19.0479 84.4053 18.9655 84.5362 18.8172C84.6671 18.6689 84.7489 18.4547 84.7816 18.1911C84.8143 17.9274 84.8307 17.6309 84.8307 17.3178V13.5774C84.8307 13.2643 84.8143 12.9677 84.7816 12.7205C84.7489 12.4569 84.6671 12.2592 84.5362 12.0944C84.4053 11.9296 84.209 11.8637 83.9472 11.8637C83.6854 11.8637 83.4727 11.9461 83.3582 12.0944C83.2273 12.2592 83.1455 12.4569 83.0964 12.7205C83.0474 12.9842 83.031 13.2643 83.031 13.5774V17.3178C83.031 17.6309 83.0474 17.9274 83.0964 18.1911C83.1455 18.4547 83.2273 18.6689 83.3582 18.8172C83.4891 18.9655 83.6854 19.0479 83.9472 19.0479Z" fill="white"/>
<path d="M91.7514 20.6629C91.1134 20.6629 90.6062 20.564 90.2299 20.3498C89.87 20.1356 89.6082 19.839 89.4446 19.4271C89.2973 19.0316 89.2155 18.5538 89.2155 17.9935V11.9462H88.2012V10.3644H89.2155V7.29956H91.6369V10.3479H93.1748V11.9298H91.6369V17.7793C91.6369 18.1253 91.7187 18.389 91.866 18.5208C92.0132 18.6691 92.2423 18.735 92.5531 18.735C92.684 18.735 92.8149 18.735 92.9294 18.7185C93.0439 18.7021 93.1748 18.7021 93.2893 18.6856V20.5146C93.093 20.5311 92.864 20.564 92.6022 20.597C92.3241 20.6464 92.0459 20.6629 91.7514 20.6629Z" fill="white"/>
<path d="M94.7942 20.5311V6.26147H100.749V8.09049H97.3955V12.1934H100.03V14.0059H97.3955V18.735H100.782V20.5311H94.7942Z" fill="white"/>
<path d="M102.124 20.5312V10.348H104.415V11.2213C104.758 10.8423 105.151 10.5787 105.56 10.3974C105.969 10.2327 106.378 10.1338 106.803 10.1338C107.196 10.1338 107.539 10.2327 107.85 10.4304C108.145 10.6281 108.374 10.9412 108.505 11.3861C108.897 10.9412 109.29 10.6116 109.732 10.4304C110.157 10.2327 110.599 10.1338 111.057 10.1338C111.417 10.1338 111.744 10.2327 112.022 10.4139C112.3 10.5952 112.529 10.8588 112.693 11.2213C112.857 11.5838 112.938 12.0287 112.938 12.5725V20.5147H110.664V12.7867C110.664 12.3912 110.599 12.1276 110.468 11.9793C110.337 11.831 110.157 11.7651 109.928 11.7651C109.748 11.7651 109.535 11.8145 109.306 11.9298C109.077 12.0452 108.865 12.177 108.685 12.3747C108.685 12.4077 108.685 12.4407 108.685 12.4736C108.685 12.5066 108.685 12.5395 108.685 12.589V20.5312H106.427V12.8032C106.427 12.4077 106.361 12.1441 106.231 11.9958C106.1 11.8475 105.92 11.7815 105.674 11.7815C105.494 11.7815 105.282 11.831 105.069 11.9463C104.84 12.0452 104.644 12.1935 104.447 12.3912V20.5476H102.124V20.5312Z" fill="white"/>
<path d="M114.689 23.8923V10.3642H117.062V11.1387C117.356 10.8586 117.667 10.6279 118.027 10.4631C118.37 10.2983 118.747 10.1995 119.123 10.1995C119.581 10.1995 119.957 10.2983 120.236 10.5125C120.53 10.7267 120.759 11.0069 120.923 11.3529C121.086 11.6989 121.201 12.0614 121.266 12.4569C121.332 12.8524 121.364 13.2313 121.364 13.5938V17.0541C121.364 17.7297 121.283 18.3394 121.135 18.8832C120.972 19.4434 120.726 19.8718 120.383 20.2014C120.039 20.5309 119.581 20.6957 119.008 20.6957C118.649 20.6957 118.305 20.6133 117.978 20.432C117.651 20.2508 117.356 20.0366 117.062 19.7565V23.8759H114.689V23.8923ZM118.125 19.0315C118.387 19.0315 118.567 18.9491 118.698 18.7678C118.812 18.603 118.894 18.3723 118.943 18.0758C118.976 17.7956 119.008 17.4661 119.008 17.1365V13.495C119.008 13.1819 118.992 12.8853 118.943 12.6381C118.894 12.391 118.812 12.1768 118.681 12.0285C118.55 11.8802 118.37 11.7978 118.125 11.7978C117.945 11.7978 117.749 11.8472 117.569 11.9296C117.389 12.012 117.225 12.1273 117.094 12.2427V18.6689C117.241 18.7678 117.405 18.8667 117.585 18.9326C117.732 18.9985 117.929 19.0315 118.125 19.0315Z" fill="white"/>
<path d="M123.18 20.5311V6.26147H125.536V20.5311H123.18Z" fill="white"/>
<path d="M130.494 20.6957C129.758 20.6957 129.152 20.5639 128.678 20.2837C128.203 20.0036 127.843 19.6082 127.598 19.0809C127.353 18.5536 127.238 17.911 127.238 17.153V13.7421C127.238 12.9842 127.353 12.358 127.598 11.8143C127.843 11.287 128.203 10.8915 128.678 10.6114C129.152 10.3313 129.758 10.1995 130.494 10.1995C131.23 10.1995 131.835 10.3313 132.326 10.6114C132.817 10.8915 133.177 11.287 133.406 11.8143C133.651 12.3415 133.766 12.9842 133.766 13.7421V17.153C133.766 17.911 133.651 18.5371 133.406 19.0809C133.161 19.6082 132.801 20.0201 132.326 20.2837C131.835 20.5639 131.23 20.6957 130.494 20.6957ZM130.51 19.0479C130.772 19.0479 130.985 18.9655 131.099 18.8172C131.23 18.6689 131.312 18.4547 131.345 18.1911C131.377 17.9274 131.394 17.6309 131.394 17.3178V13.5774C131.394 13.2643 131.377 12.9677 131.345 12.7205C131.312 12.4569 131.23 12.2592 131.099 12.0944C130.968 11.9296 130.772 11.8637 130.51 11.8637C130.248 11.8637 130.036 11.9461 129.921 12.0944C129.79 12.2592 129.709 12.4569 129.659 12.7205C129.61 12.9842 129.594 13.2643 129.594 13.5774V17.3178C129.594 17.6309 129.61 17.9274 129.659 18.1911C129.692 18.4547 129.79 18.6689 129.921 18.8172C130.036 18.9655 130.232 19.0479 130.51 19.0479Z" fill="white"/>
<path d="M135.418 23.2993V21.5691C135.827 21.5691 136.155 21.5527 136.416 21.5032C136.678 21.4538 136.858 21.3714 136.973 21.2561C137.087 21.1407 137.153 20.9759 137.153 20.7617C137.153 20.6134 137.12 20.3663 137.038 20.0367C136.956 19.7072 136.875 19.3447 136.776 18.9657L134.551 10.3479H136.858L138.167 17.0543L139.312 10.3479H141.603L139.247 20.943C139.116 21.5362 138.903 22.014 138.592 22.3601C138.282 22.7061 137.905 22.9368 137.447 23.0851C136.989 23.2334 136.465 23.2993 135.86 23.2993H135.418Z" fill="white"/>
<path d="M145.775 20.6957C145.022 20.6957 144.4 20.5474 143.926 20.2673C143.451 19.9871 143.091 19.5587 142.862 18.9985C142.633 18.4383 142.519 17.7627 142.519 16.9882V13.9234C142.519 13.116 142.633 12.4239 142.862 11.8802C143.091 11.3199 143.451 10.908 143.926 10.6279C144.417 10.3478 145.022 10.1995 145.775 10.1995C146.576 10.1995 147.214 10.3478 147.656 10.6608C148.098 10.9739 148.425 11.4023 148.621 11.9955C148.818 12.5722 148.916 13.2808 148.916 14.1211V15.5712H144.891V17.5814C144.891 17.911 144.924 18.1746 144.989 18.3888C145.055 18.603 145.153 18.7513 145.3 18.8502C145.447 18.9491 145.611 18.9985 145.807 18.9985C146.02 18.9985 146.184 18.9491 146.314 18.8502C146.445 18.7513 146.544 18.603 146.593 18.4053C146.658 18.2076 146.674 17.9604 146.674 17.6803V16.8399H148.899V17.532C148.899 18.5701 148.638 19.361 148.131 19.9048C147.607 20.4156 146.838 20.6957 145.775 20.6957ZM144.891 14.3683H146.674V13.3961C146.674 13.0501 146.642 12.7535 146.593 12.5393C146.527 12.3251 146.445 12.1603 146.314 12.0614C146.184 11.9626 146.004 11.9131 145.775 11.9131C145.562 11.9131 145.398 11.9626 145.267 12.0779C145.137 12.1768 145.038 12.358 144.989 12.6052C144.924 12.8524 144.907 13.1984 144.907 13.6598V14.3683H144.891Z" fill="white"/>
<path d="M153.579 20.6957C152.826 20.6957 152.204 20.5474 151.73 20.2673C151.255 19.9871 150.895 19.5587 150.666 18.9985C150.437 18.4383 150.323 17.7627 150.323 16.9882V13.9234C150.323 13.116 150.437 12.4239 150.666 11.8802C150.895 11.3199 151.255 10.908 151.73 10.6279C152.221 10.3478 152.826 10.1995 153.579 10.1995C154.38 10.1995 155.018 10.3478 155.46 10.6608C155.902 10.9739 156.229 11.4023 156.425 11.9955C156.622 12.5722 156.72 13.2808 156.72 14.1211V15.5712H152.695V17.5814C152.695 17.911 152.728 18.1746 152.793 18.3888C152.859 18.603 152.957 18.7513 153.104 18.8502C153.251 18.9491 153.415 18.9985 153.611 18.9985C153.824 18.9985 153.988 18.9491 154.118 18.8502C154.249 18.7513 154.347 18.603 154.397 18.4053C154.462 18.2076 154.478 17.9604 154.478 17.6803V16.8399H156.703V17.532C156.703 18.5701 156.442 19.361 155.934 19.9048C155.411 20.4156 154.642 20.6957 153.579 20.6957ZM152.695 14.3683H154.478V13.3961C154.478 13.0501 154.446 12.7535 154.397 12.5393C154.331 12.3251 154.249 12.1603 154.118 12.0614C153.988 11.9626 153.808 11.9131 153.579 11.9131C153.366 11.9131 153.202 11.9626 153.071 12.0779C152.94 12.1768 152.842 12.358 152.793 12.6052C152.728 12.8524 152.711 13.1984 152.711 13.6598V14.3683H152.695Z" fill="white"/>
<path d="M161.072 20.6957C160.221 20.6957 159.518 20.465 158.978 20.0036C158.422 19.5423 158.045 18.8831 157.8 17.9934L159.567 17.3013C159.714 17.8615 159.894 18.2735 160.123 18.5701C160.352 18.8667 160.663 19.015 161.039 19.015C161.317 19.015 161.53 18.9491 161.661 18.8008C161.792 18.6525 161.874 18.4712 161.874 18.224C161.874 17.9439 161.792 17.6803 161.628 17.4496C161.465 17.2189 161.17 16.9388 160.761 16.5928L159.534 15.5547C159.092 15.1592 158.732 14.7638 158.454 14.3683C158.176 13.9563 158.045 13.462 158.045 12.8359C158.045 12.2756 158.176 11.8143 158.422 11.4188C158.667 11.0233 159.01 10.7267 159.452 10.4961C159.894 10.2818 160.368 10.1665 160.908 10.1665C161.726 10.1665 162.381 10.4137 162.872 10.8915C163.362 11.3858 163.69 12.012 163.821 12.8029L162.266 13.4785C162.201 13.1984 162.119 12.9347 162.005 12.6876C161.89 12.4404 161.743 12.2427 161.579 12.0944C161.399 11.9461 161.203 11.8637 160.974 11.8637C160.728 11.8637 160.532 11.9461 160.385 12.0944C160.238 12.2427 160.172 12.4404 160.172 12.6711C160.172 12.8688 160.254 13.083 160.418 13.2808C160.581 13.495 160.827 13.7257 161.137 14.0058L162.381 15.1263C162.643 15.3569 162.904 15.6206 163.15 15.8842C163.395 16.1479 163.592 16.4609 163.755 16.7905C163.919 17.12 164.001 17.5155 164.001 17.9439C164.001 18.5371 163.87 19.0314 163.608 19.4269C163.346 19.8224 162.986 20.1354 162.544 20.3332C162.119 20.5968 161.628 20.6957 161.072 20.6957Z" fill="white"/>
<path d="M52.7472 34.504H52.2236V27.5834H49.835V27.0891H55.1358V27.5834H52.7472V34.504Z" fill="white"/>
<path d="M59.9131 34.5041V30.9285C59.9131 30.3682 59.7986 29.9728 59.5696 29.7256C59.3405 29.4784 58.9806 29.3466 58.4897 29.3466C57.8353 29.3466 57.3609 29.5114 57.05 29.8409C56.7391 30.1705 56.5919 30.7142 56.5919 31.4557V34.4876H56.1011V26.6113H56.5919V29.1159L56.5592 29.8245H56.5919C56.8046 29.4949 57.05 29.2477 57.3609 29.0994C57.6717 28.9511 58.0644 28.8688 58.5225 28.8688C59.7659 28.8688 60.3876 29.5443 60.3876 30.879V34.4876H59.9131V34.5041Z" fill="white"/>
<path d="M64.3794 34.6027C63.5778 34.6027 62.9724 34.3556 62.5143 33.8612C62.0726 33.3669 61.8435 32.6749 61.8435 31.7851C61.8435 30.9118 62.0562 30.2032 62.4816 29.6759C62.907 29.1487 63.4959 28.885 64.2158 28.885C64.8539 28.885 65.3611 29.1157 65.7374 29.5606C66.1137 30.0055 66.2936 30.6316 66.2936 31.4061V31.818H62.3507C62.3507 32.576 62.5307 33.1527 62.8742 33.5482C63.2178 33.9436 63.7086 34.1414 64.3467 34.1414C64.6576 34.1414 64.9357 34.1249 65.1648 34.0754C65.3938 34.026 65.7047 33.9436 66.0646 33.7953V34.2567C65.7537 34.3885 65.4756 34.4874 65.2138 34.5368C64.9521 34.5863 64.6903 34.6027 64.3794 34.6027ZM64.2322 29.3299C63.7086 29.3299 63.2833 29.5112 62.9724 29.8572C62.6615 30.2032 62.4652 30.714 62.4161 31.3731H65.7865C65.7865 30.7305 65.6556 30.2362 65.3774 29.8737C65.0993 29.5112 64.723 29.3299 64.2322 29.3299Z" fill="white"/>
<path d="M75.0305 31.7356C75.0305 32.6419 74.8178 33.334 74.3761 33.8448C73.9507 34.3556 73.3454 34.6027 72.5928 34.6027C72.1183 34.6027 71.6929 34.4874 71.333 34.2567C70.9731 34.026 70.6949 33.6965 70.4986 33.2516C70.3023 32.8232 70.2041 32.3123 70.2041 31.7356C70.2041 30.8294 70.4168 30.1373 70.8585 29.643C71.2839 29.1486 71.8893 28.885 72.6419 28.885C73.3945 28.885 73.9834 29.1322 74.4088 29.643C74.8179 30.1538 75.0305 30.8623 75.0305 31.7356ZM70.7113 31.7356C70.7113 32.4936 70.8749 33.0868 71.2021 33.4987C71.5293 33.9271 72.0038 34.1414 72.6091 34.1414C73.2145 34.1414 73.6726 33.9271 74.0162 33.4987C74.3434 33.0703 74.507 32.4771 74.507 31.7356C74.507 30.9777 74.3434 30.3845 73.9998 29.9725C73.6726 29.5606 73.1981 29.3464 72.5928 29.3464C71.9874 29.3464 71.5293 29.5606 71.2021 29.9725C70.8749 30.3845 70.7113 30.9777 70.7113 31.7356Z" fill="white"/>
<path d="M76.9774 29.0005V32.5597C76.9774 33.1199 77.0919 33.5153 77.321 33.7625C77.55 34.0097 77.91 34.1415 78.4008 34.1415C79.0552 34.1415 79.5297 33.9767 79.8405 33.6472C80.1514 33.3176 80.2986 32.7739 80.2986 32.0324V29.0005H80.7895V34.504H80.3641L80.2659 33.746H80.2332C79.8732 34.3228 79.2515 34.6029 78.3353 34.6029C77.0919 34.6029 76.4702 33.9273 76.4702 32.5926V29.0005H76.9774Z" fill="white"/>
<path d="M84.062 34.1581C84.3728 34.1581 84.651 34.1251 84.88 34.0757V34.4876C84.6346 34.57 84.3565 34.603 84.0456 34.603C83.5548 34.603 83.2112 34.4711 82.9822 34.2075C82.7531 33.9439 82.6386 33.5319 82.6386 32.9882V29.429H81.8206V29.1324L82.6222 28.9017L82.8677 27.6494H83.1294V28.9841H84.7328V29.4125H83.1294V32.9058C83.1294 33.3342 83.2112 33.6473 83.3585 33.845C83.5057 34.0592 83.7348 34.1581 84.062 34.1581Z" fill="white"/>
<path d="M89.4612 33.0703C89.4612 33.5646 89.2813 33.9436 88.905 34.2073C88.5287 34.4709 88.0051 34.6027 87.318 34.6027C86.5817 34.6027 86.0091 34.4874 85.5837 34.2567V33.7129C86.14 33.9931 86.7126 34.1249 87.318 34.1249C87.8579 34.1249 88.2669 34.0425 88.545 33.8612C88.8232 33.68 88.9704 33.4328 88.9704 33.1362C88.9704 32.8561 88.8559 32.6254 88.6432 32.4442C88.4305 32.2629 88.0542 32.0652 87.547 31.8839C87.0071 31.6862 86.6145 31.5214 86.4018 31.3731C86.1891 31.2248 86.0091 31.06 85.8946 30.8788C85.7801 30.6975 85.731 30.4833 85.731 30.2197C85.731 29.8078 85.911 29.4782 86.2545 29.2475C86.5981 29.0004 87.0726 28.885 87.6943 28.885C88.2833 28.885 88.8395 29.0004 89.3794 29.2146L89.1995 29.6759C88.6595 29.4452 88.1687 29.3464 87.7106 29.3464C87.2689 29.3464 86.909 29.4288 86.6472 29.5771C86.3854 29.7254 86.2545 29.9396 86.2545 30.2032C86.2545 30.4833 86.3527 30.714 86.5654 30.8953C86.7617 31.06 87.1707 31.2578 87.7597 31.472C88.2505 31.6532 88.6105 31.818 88.8395 31.9498C89.0686 32.0817 89.2322 32.2629 89.3467 32.4442C89.4612 32.6254 89.4612 32.8232 89.4612 33.0703Z" fill="white"/>
<path d="M92.3078 34.1581C92.6187 34.1581 92.8968 34.1251 93.1258 34.0757V34.4876C92.8804 34.57 92.6023 34.603 92.2915 34.603C91.8006 34.603 91.4571 34.4711 91.228 34.2075C90.999 33.9439 90.8844 33.5319 90.8844 32.9882V29.429H90.0828V29.1324L90.8844 28.9017L91.1299 27.6494H91.3916V28.9841H92.995V29.4125H91.3916V32.9058C91.3916 33.3342 91.4734 33.6473 91.6207 33.845C91.7516 34.0592 91.997 34.1581 92.3078 34.1581Z" fill="white"/>
<path d="M97.625 34.504L97.4942 33.6307H97.4614C97.1833 33.9932 96.9052 34.2403 96.6107 34.3886C96.3162 34.5369 95.9726 34.6029 95.5799 34.6029C95.04 34.6029 94.631 34.471 94.3202 34.1909C94.0257 33.9108 93.8784 33.5318 93.8784 33.0375C93.8784 32.4937 94.1075 32.0818 94.5492 31.7852C94.9909 31.4886 95.629 31.3238 96.4798 31.3073L97.5269 31.2744V30.9119C97.5269 30.3846 97.4287 29.9891 97.216 29.7255C97.0033 29.4618 96.6598 29.33 96.2017 29.33C95.6945 29.33 95.1709 29.4783 94.631 29.7584L94.451 29.33C95.0564 29.0499 95.6454 28.9016 96.2344 28.9016C96.8397 28.9016 97.2815 29.0664 97.576 29.3795C97.8705 29.6925 98.0177 30.1869 98.0177 30.846V34.504H97.625ZM95.6127 34.1415C96.2016 34.1415 96.6598 33.9767 96.987 33.6307C97.3305 33.3011 97.4942 32.8233 97.4942 32.2301V31.6863L96.5452 31.7193C95.7763 31.7522 95.2364 31.8841 94.9091 32.0818C94.5819 32.2795 94.4183 32.6091 94.4183 33.0375C94.4183 33.3835 94.5165 33.6472 94.7292 33.8449C94.9419 34.0426 95.2364 34.1415 95.6127 34.1415Z" fill="white"/>
<path d="M101.797 29.4289H100.504V34.504H100.013V29.4289H98.999V29.1323L100.013 28.951V28.5226C100.013 27.847 100.144 27.3527 100.39 27.0396C100.635 26.7265 101.044 26.5618 101.6 26.5618C101.895 26.5618 102.206 26.6112 102.5 26.6936L102.386 27.122C102.124 27.0396 101.846 26.9902 101.584 26.9902C101.191 26.9902 100.913 27.1055 100.75 27.3362C100.586 27.5669 100.504 27.9459 100.504 28.4567V28.9675H101.797V29.4289Z" fill="white"/>
<path d="M104.889 29.4289H103.596V34.504H103.106V29.4289H102.091V29.1323L103.106 28.951V28.5226C103.106 27.847 103.237 27.3527 103.482 27.0396C103.727 26.7265 104.136 26.5618 104.693 26.5618C104.987 26.5618 105.298 26.6112 105.592 26.6936L105.478 27.122C105.216 27.0396 104.938 26.9902 104.676 26.9902C104.284 26.9902 104.006 27.1055 103.842 27.3362C103.678 27.5669 103.596 27.9459 103.596 28.4567V28.9675H104.889V29.4289Z" fill="white"/>
<path d="M105.871 27.468C105.871 27.1384 105.969 26.9736 106.181 26.9736C106.28 26.9736 106.361 27.0231 106.427 27.1055C106.492 27.1878 106.509 27.3032 106.509 27.468C106.509 27.6163 106.476 27.7481 106.427 27.8305C106.361 27.9129 106.28 27.9623 106.181 27.9623C105.985 27.9623 105.871 27.7975 105.871 27.468ZM106.443 34.5039H105.952V29.0004H106.443V34.5039Z" fill="white"/>
<path d="M112.088 34.5039V30.9282C112.088 30.368 111.973 29.9725 111.744 29.7254C111.515 29.4782 111.155 29.3464 110.664 29.3464C110.01 29.3464 109.535 29.5112 109.225 29.8407C108.914 30.1703 108.766 30.714 108.766 31.4555V34.4874H108.276V28.9839H108.701L108.799 29.7418H108.832C109.192 29.1651 109.814 28.885 110.73 28.885C111.973 28.885 112.595 29.5606 112.595 30.8953V34.5039H112.088Z" fill="white"/>
<path d="M118.615 29.0004V29.3464L117.487 29.4123C117.781 29.7913 117.945 30.2032 117.945 30.6646C117.945 31.1919 117.765 31.6203 117.421 31.9498C117.078 32.2794 116.603 32.4442 116.014 32.4442C115.769 32.4442 115.589 32.4277 115.491 32.4112C115.294 32.5101 115.147 32.6419 115.032 32.7737C114.934 32.922 114.869 33.0703 114.869 33.2186C114.869 33.3999 114.934 33.5152 115.065 33.5976C115.196 33.68 115.425 33.7129 115.736 33.7129H116.685C117.274 33.7129 117.732 33.8283 118.043 34.0755C118.354 34.3226 118.517 34.6686 118.517 35.1465C118.517 35.7232 118.288 36.1681 117.814 36.4977C117.339 36.8272 116.685 36.9755 115.818 36.9755C115.131 36.9755 114.591 36.8437 114.214 36.58C113.838 36.3164 113.642 35.9374 113.642 35.4596C113.642 35.0806 113.756 34.7675 113.985 34.5203C114.214 34.2732 114.542 34.0919 114.934 34.0095C114.771 33.9436 114.64 33.8448 114.542 33.7129C114.444 33.5811 114.394 33.4328 114.394 33.268C114.394 32.9055 114.623 32.576 115.098 32.2959C114.787 32.164 114.525 31.9498 114.345 31.6697C114.165 31.3896 114.084 31.0601 114.084 30.6975C114.084 30.1538 114.264 29.7089 114.607 29.3793C114.951 29.0498 115.425 28.885 116.014 28.885C116.374 28.885 116.652 28.918 116.849 28.9839H118.615V29.0004ZM114.198 35.4431C114.198 36.2011 114.754 36.58 115.867 36.58C117.307 36.58 118.026 36.1187 118.026 35.1959C118.026 34.8664 117.912 34.6192 117.683 34.4709C117.454 34.3226 117.094 34.2402 116.587 34.2402H115.687C114.689 34.2402 114.198 34.6357 114.198 35.4431ZM114.607 30.714C114.607 31.1424 114.738 31.472 115 31.7027C115.262 31.9334 115.605 32.0487 116.03 32.0487C116.489 32.0487 116.832 31.9334 117.078 31.7027C117.323 31.472 117.438 31.126 117.438 30.6975C117.438 30.2362 117.307 29.8737 117.061 29.643C116.816 29.4123 116.456 29.2969 116.014 29.2969C115.572 29.2969 115.229 29.4288 114.983 29.6759C114.738 29.9066 114.607 30.2691 114.607 30.714Z" fill="white"/>
<path d="M124.604 34.6029C123.818 34.6029 123.213 34.3557 122.771 33.8614C122.329 33.367 122.1 32.675 122.1 31.7852C122.1 30.8789 122.329 30.1704 122.787 29.6596C123.246 29.1488 123.884 28.9016 124.669 28.9016C125.143 28.9016 125.602 28.984 126.027 29.1488L125.896 29.5937C125.422 29.4289 125.013 29.363 124.669 29.363C123.998 29.363 123.491 29.5772 123.147 29.9891C122.804 30.4011 122.624 31.0107 122.624 31.7852C122.624 32.5267 122.804 33.1034 123.147 33.5318C123.491 33.9602 123.982 34.158 124.604 34.158C125.094 34.158 125.569 34.0756 125.994 33.8943V34.3557C125.618 34.5205 125.16 34.6029 124.604 34.6029Z" fill="white"/>
<path d="M131.835 31.7356C131.835 32.6419 131.623 33.334 131.181 33.8448C130.756 34.3556 130.15 34.6027 129.398 34.6027C128.923 34.6027 128.498 34.4874 128.138 34.2567C127.778 34.026 127.5 33.6965 127.304 33.2516C127.107 32.8232 127.009 32.3123 127.009 31.7356C127.009 30.8294 127.222 30.1373 127.663 29.643C128.089 29.1486 128.694 28.885 129.447 28.885C130.199 28.885 130.788 29.1322 131.214 29.643C131.623 30.1538 131.835 30.8623 131.835 31.7356ZM127.516 31.7356C127.516 32.4936 127.68 33.0868 128.007 33.4987C128.334 33.9271 128.809 34.1414 129.414 34.1414C130.019 34.1414 130.478 33.9271 130.821 33.4987C131.148 33.0703 131.312 32.4771 131.312 31.7356C131.312 30.9777 131.148 30.3845 130.805 29.9725C130.478 29.5606 130.003 29.3464 129.398 29.3464C128.792 29.3464 128.334 29.5606 128.007 29.9725C127.68 30.3845 127.516 30.9777 127.516 31.7356Z" fill="white"/>
<path d="M140.179 34.504V30.8954C140.179 30.3516 140.081 29.9727 139.868 29.7255C139.656 29.4783 139.345 29.363 138.919 29.363C138.363 29.363 137.938 29.5113 137.676 29.8244C137.414 30.1374 137.267 30.6153 137.267 31.2909V34.5205H136.76V30.7636C136.76 29.8408 136.334 29.363 135.5 29.363C134.927 29.363 134.502 29.5278 134.24 29.8738C133.978 30.2198 133.848 30.7471 133.848 31.4886V34.5205H133.357V29.017H133.766L133.864 29.7749H133.897C134.044 29.4948 134.257 29.2971 134.535 29.1323C134.813 28.9675 135.124 28.9016 135.451 28.9016C136.318 28.9016 136.858 29.2312 137.103 29.8738H137.12C137.3 29.5607 137.529 29.3136 137.84 29.1488C138.134 28.984 138.478 28.9016 138.87 28.9016C139.459 28.9016 139.917 29.0664 140.212 29.3795C140.506 29.6925 140.654 30.2033 140.654 30.9119V34.5205H140.179V34.504Z" fill="white"/>
<path d="M144.777 34.6029C143.942 34.6029 143.32 34.2898 142.928 33.6472H142.895L142.911 34.0756C142.928 34.3227 142.928 34.6029 142.928 34.8995V36.9921H142.437V29.0005H142.862L142.961 29.7914H142.993C143.37 29.1982 143.975 28.9016 144.793 28.9016C145.529 28.9016 146.085 29.1488 146.478 29.6266C146.871 30.121 147.067 30.8295 147.067 31.7522C147.067 32.6585 146.871 33.367 146.462 33.8614C146.036 34.3557 145.48 34.6029 144.777 34.6029ZM144.76 34.158C145.317 34.158 145.758 33.9438 146.053 33.5318C146.347 33.1199 146.511 32.5267 146.511 31.7687C146.511 30.1539 145.938 29.3465 144.777 29.3465C144.139 29.3465 143.664 29.5278 143.37 29.8738C143.075 30.2198 142.928 30.7965 142.928 31.6039V31.7687C142.928 32.6255 143.075 33.2517 143.353 33.6142C143.648 33.9767 144.122 34.158 144.76 34.158Z" fill="white"/>
<path d="M151.894 34.504L151.763 33.6307H151.73C151.452 33.9932 151.174 34.2403 150.879 34.3886C150.585 34.5369 150.241 34.6029 149.848 34.6029C149.309 34.6029 148.9 34.471 148.589 34.1909C148.294 33.9108 148.147 33.5318 148.147 33.0375C148.147 32.4937 148.376 32.0818 148.818 31.7852C149.26 31.4886 149.898 31.3238 150.748 31.3073L151.795 31.2744V30.9119C151.795 30.3846 151.697 29.9891 151.485 29.7255C151.272 29.4618 150.928 29.33 150.47 29.33C149.963 29.33 149.439 29.4783 148.9 29.7584L148.72 29.33C149.325 29.0499 149.914 28.9016 150.503 28.9016C151.108 28.9016 151.55 29.0664 151.845 29.3795C152.139 29.6925 152.286 30.1869 152.286 30.846V34.504H151.894ZM149.881 34.1415C150.47 34.1415 150.928 33.9767 151.256 33.6307C151.599 33.3011 151.763 32.8233 151.763 32.2301V31.6863L150.814 31.7193C150.045 31.7522 149.505 31.8841 149.178 32.0818C148.85 32.2795 148.687 32.6091 148.687 33.0375C148.687 33.3835 148.785 33.6472 148.998 33.8449C149.21 34.0426 149.489 34.1415 149.881 34.1415Z" fill="white"/>
<path d="M157.832 34.5039V30.9282C157.832 30.368 157.718 29.9725 157.489 29.7254C157.259 29.4782 156.9 29.3464 156.409 29.3464C155.754 29.3464 155.28 29.5112 154.969 29.8407C154.658 30.1703 154.511 30.714 154.511 31.4555V34.4874H154.02V28.9839H154.445L154.544 29.7418H154.576C154.936 29.1651 155.558 28.885 156.474 28.885C157.718 28.885 158.339 29.5606 158.339 30.8953V34.5039H157.832Z" fill="white"/>
<path d="M159.19 29.0005H159.697L160.859 32.0983C161.219 33.054 161.432 33.6801 161.53 34.0262H161.562C161.71 33.5977 161.939 32.9386 162.25 32.0818L163.411 29.017H163.918L161.464 35.4103C161.268 35.9376 161.104 36.2836 160.973 36.4648C160.843 36.6461 160.679 36.7779 160.499 36.8768C160.319 36.9756 160.106 37.0086 159.845 37.0086C159.648 37.0086 159.436 36.9756 159.207 36.9097V36.4813C159.403 36.5307 159.616 36.5637 159.828 36.5637C159.992 36.5637 160.155 36.5307 160.286 36.4484C160.417 36.366 160.532 36.2342 160.646 36.0694C160.761 35.9046 160.875 35.6245 161.006 35.262C161.137 34.8995 161.235 34.6523 161.268 34.537L159.19 29.0005Z" fill="white"/>
<g opacity="0.3">
<g opacity="0.3">
<path opacity="0.3" d="M3.32153 0.82373L14.1524 7.1017H41.6385V0.82373H3.32153Z" fill="black"/>
<path opacity="0.3" d="M16.6553 16.3132C12.2542 18.4717 8.31127 21.4047 4.99003 24.9639V9.54086L16.6553 16.3132ZM0 42.7597C1.96329 35.8885 5.90624 29.8742 11.1744 25.3594L21.1545 42.7597H26.9298L15.2319 22.3604C19.1585 19.8558 23.6086 18.1092 28.3859 17.3183L0 0.824219V42.7597Z" fill="black"/>
<path opacity="0.3" d="M33.769 18.5205H41.6385V24.7985H18.5534L17.49 22.953C22.3001 20.2012 27.8464 18.6029 33.769 18.5205Z" fill="black"/>
<path opacity="0.3" d="M25.2446 36.4648L28.8604 42.7593H41.6381V36.4648H25.2446Z" fill="black"/>
</g>
</g>
<path d="M4.13916 0L14.97 6.27796H42.4561V0H4.13916Z" fill="white"/>
<path d="M17.4734 15.4889C13.0723 17.6475 9.12938 20.5805 5.80815 24.1397V8.71665L17.4734 15.4889ZM0.818115 41.9355C2.78141 35.0643 6.72435 29.05 11.9925 24.5351L21.9726 41.9355H27.7479L16.05 21.5362C19.9766 19.0316 24.4267 17.285 29.204 16.4941L0.818115 0V41.9355Z" fill="white"/>
<path d="M34.5863 17.6968H42.4559V23.9747H19.3708L18.3074 22.1293C23.1174 19.3775 28.6637 17.7792 34.5863 17.6968Z" fill="white"/>
<path d="M26.062 35.6411L29.6777 41.9356H42.4555V35.6411H26.062Z" fill="white"/>
</svg>
