<svg width="44" height="44" viewBox="0 0 44 44" fill="none" xmlns="http://www.w3.org/2000/svg">
<path d="M21.9398 11C21.237 11 21.237 12.0455 21.9398 12.0542C27.3924 12.0943 31.8831 15.7221 31.9323 22.3767C31.9323 23.0789 33.0094 23.0702 33.0002 22.368H32.9984C32.94 15.1976 28.0368 11.0401 21.9398 11Z" fill="#E0E0E0"/>
<path d="M29.1122 21.2736C29.0958 21.9671 30.171 22.0002 30.1801 21.298C30.2695 17.3443 27.7157 14.0876 22.9166 13.7443C22.2138 13.6955 22.1408 14.7497 22.8418 14.7985C27.0038 15.1 29.1962 17.8113 29.1122 21.2736Z" fill="#E0E0E0"/>
<path d="M27.9621 25.771C27.0603 25.2727 26.1421 25.5828 25.7624 26.0725L24.9683 27.0535C24.5649 27.5518 23.811 27.4856 23.811 27.4856C18.3091 26.0969 16.8378 20.6011 16.8378 20.6011C16.8378 20.6011 16.7702 19.857 17.2741 19.458L18.2671 18.6739C18.7636 18.2975 19.0776 17.3914 18.572 16.501C17.2211 14.1713 16.3139 13.368 15.852 12.7512C15.3665 12.1709 14.6363 12.0403 13.8769 12.4323H13.8605C12.2814 13.314 10.5527 14.9641 11.1059 16.6631C12.0496 18.4543 13.7838 24.1645 19.3113 28.4788C21.9089 30.5193 26.0198 32.6103 27.7649 33.0929L27.7814 33.1173C29.5009 33.6645 31.1731 31.9499 32.0657 30.3973V30.3851C32.4618 29.6341 32.3304 28.9232 31.7517 28.4579C30.7258 27.5031 29.1778 26.4488 27.9621 25.771Z" fill="#E0E0E0"/>
<path d="M23.6684 17.6334C25.4227 17.731 26.2733 18.6057 26.3646 20.4022C26.3975 21.1045 27.4653 21.0557 27.4325 20.3535C27.3157 18.0081 26.0342 16.7012 23.7268 16.5792C23.024 16.5392 22.9583 17.5934 23.6684 17.6334Z" fill="#E0E0E0"/>
<circle cx="22" cy="22" r="21" stroke="#E0E0E0" stroke-width="2"/>
</svg>
