<svg width="86" height="86" viewBox="0 0 86 86" fill="none" xmlns="http://www.w3.org/2000/svg">
<path d="M85 43C85 66.196 66.196 85 43 85C19.804 85 1 66.196 1 43C1 19.804 19.804 1 43 1C66.196 1 85 19.804 85 43Z" fill="#C4C4C4" stroke="black" stroke-width="2"/>
<path d="M43 68.0499C56.8347 68.0499 68.05 56.8347 68.05 43C68.05 29.1652 56.8347 17.95 43 17.95C29.1653 17.95 17.95 29.1652 17.95 43C17.95 56.8347 29.1653 68.0499 43 68.0499Z" fill="#BDBDBD"/>
<path d="M42.5 68C56.031 68 67 57.031 67 43.5C67 29.969 56.031 19 42.5 19C28.969 19 18 29.969 18 43.5C18 57.031 28.969 68 42.5 68Z" fill="white"/>
<path d="M43 48.01C45.7669 48.01 48.01 45.7669 48.01 43C48.01 40.233 45.7669 37.99 43 37.99C40.233 37.99 37.99 40.233 37.99 43C37.99 45.7669 40.233 48.01 43 48.01Z" fill="#BDBDBD"/>
<path d="M43 45.0038C44.1067 45.0038 45.0038 44.1067 45.0038 43.0001C45.0038 41.8934 44.1067 40.9963 43 40.9963C41.8934 40.9963 40.9963 41.8934 40.9963 43.0001C40.9963 44.1067 41.8934 45.0038 43 45.0038Z" fill="#828282"/>
<path d="M43.9375 25.9658V21.9576C43.9375 21.4399 43.5178 21.0201 43 21.0201C42.4822 21.0201 42.0625 21.4399 42.0625 21.9576V25.9656C42.0625 26.4834 42.4822 26.9031 43 26.9031C43.5178 26.9031 43.9375 26.4835 43.9375 25.9658Z" fill="black"/>
<path d="M42.0625 60.0342V64.0422C42.0625 64.5599 42.4822 64.9797 43 64.9797C43.5178 64.9797 43.9375 64.5599 43.9375 64.0422V60.0342C43.9375 59.5164 43.5178 59.0967 43 59.0967C42.4822 59.0967 42.0625 59.5164 42.0625 60.0342Z" fill="black"/>
<path d="M64.9799 43C64.9799 42.4822 64.5601 42.0625 64.0424 42.0625H60.0344C59.5166 42.0625 59.0969 42.4822 59.0969 43C59.0969 43.5178 59.5166 43.9375 60.0344 43.9375H64.0424C64.5601 43.9375 64.9799 43.5178 64.9799 43Z" fill="black"/>
<path d="M21.9576 42.0625C21.4399 42.0625 21.0201 42.4822 21.0201 43C21.0201 43.5178 21.4399 43.9375 21.9576 43.9375H25.9656C26.4834 43.9375 26.9031 43.5178 26.9031 43C26.9031 42.4822 26.4834 42.0625 25.9656 42.0625H21.9576Z" fill="black"/>
<path d="M27.3242 33.9496C27.5831 33.5012 27.4295 32.9278 26.9811 32.6689L25.2456 31.6669C24.7971 31.4079 24.2239 31.5617 23.965 32.0101C23.7061 32.4584 23.8597 33.0318 24.3081 33.2907L26.0436 34.2927C26.1912 34.3779 26.3525 34.4184 26.5115 34.4184C26.8355 34.4184 27.1506 34.2502 27.3242 33.9496Z" fill="black"/>
<path d="M59.9564 51.7072C59.508 51.4482 58.9346 51.602 58.6757 52.0504C58.4169 52.4987 58.5705 53.0721 59.0189 53.331L60.7544 54.333C60.902 54.4182 61.0632 54.4587 61.2222 54.4587C61.5462 54.4587 61.8614 54.2905 62.035 53.9899C62.2939 53.5415 62.1402 52.9681 61.6919 52.7092L59.9564 51.7072Z" fill="black"/>
<path d="M52.5182 27.4499C52.8422 27.4499 53.1574 27.2817 53.331 26.981L54.333 25.2455C54.5919 24.7972 54.4382 24.2238 53.9899 23.9649C53.5415 23.7059 52.9681 23.8597 52.7092 24.308L51.7072 26.0435C51.4484 26.4919 51.602 27.0653 52.0504 27.3242C52.198 27.4094 52.3592 27.4499 52.5182 27.4499Z" fill="black"/>
<path d="M32.669 59.0189L31.667 60.7544C31.4081 61.2027 31.5618 61.7761 32.0101 62.035C32.1578 62.1202 32.319 62.1607 32.478 62.1607C32.802 62.1607 33.1171 61.9925 33.2908 61.6919L34.2928 59.9564C34.5516 59.508 34.398 58.9346 33.9496 58.6757C33.5011 58.4167 32.9278 58.5705 32.669 59.0189Z" fill="black"/>
<path d="M60.7545 31.6669L59.019 32.6689C58.5706 32.9278 58.417 33.5011 58.6759 33.9495C58.8495 34.2503 59.1646 34.4184 59.4886 34.4184C59.6476 34.4184 59.8089 34.3779 59.9565 34.2926L61.692 33.2906C62.1404 33.0318 62.294 32.4584 62.0351 32.01C61.7762 31.5616 61.2027 31.408 60.7545 31.6669Z" fill="black"/>
<path d="M27.3242 52.0503C27.0654 51.6018 26.492 51.4481 26.0436 51.7071L24.3081 52.7091C23.8597 52.968 23.7061 53.5414 23.965 53.9898C24.1386 54.2905 24.4537 54.4586 24.7777 54.4586C24.9367 54.4586 25.098 54.4181 25.2456 54.3329L26.9811 53.3309C27.4295 53.0721 27.5831 52.4988 27.3242 52.0503Z" fill="black"/>
<path d="M32.669 26.9811C32.8426 27.2818 33.1578 27.45 33.4818 27.45C33.6408 27.45 33.802 27.4094 33.9496 27.3242C34.398 27.0653 34.5516 26.4919 34.2928 26.0436L33.2908 24.3081C33.0319 23.8596 32.4585 23.7059 32.0101 23.9649C31.5618 24.2238 31.4081 24.7972 31.667 25.2456L32.669 26.9811Z" fill="black"/>
<path d="M52.0504 58.6757C51.602 58.9346 51.4484 59.508 51.7072 59.9564L52.7092 61.6919C52.8829 61.9926 53.198 62.1607 53.522 62.1607C53.681 62.1607 53.8422 62.1202 53.9899 62.035C54.4382 61.7761 54.5919 61.2027 54.333 60.7544L53.331 59.0189C53.0722 58.5705 52.4987 58.4167 52.0504 58.6757Z" fill="black"/>
<path d="M56.9527 40.8534C56.8741 40.3418 56.3964 39.9907 55.8836 40.0694L45.612 41.6497C45.1219 40.7054 44.1354 40.0585 43.0001 40.0585C42.5305 40.0585 42.0865 40.1698 41.6922 40.3664L31.6389 30.313C31.2727 29.9469 30.6791 29.9469 30.3131 30.313C29.947 30.6792 29.947 31.2728 30.3131 31.6388L40.3665 41.6922C40.1699 42.0864 40.0586 42.5304 40.0586 43C40.0586 44.622 41.3782 45.9415 43.0001 45.9415C44.4506 45.9415 45.6585 44.8859 45.8977 43.5028L56.1689 41.9227C56.6805 41.8438 57.0315 41.3652 56.9527 40.8534ZM43 44.0665C42.4119 44.0665 41.9335 43.588 41.9335 43C41.9335 42.412 42.412 41.9335 43 41.9335C43.588 41.9335 44.0665 42.412 44.0665 43C44.0665 43.588 43.5881 44.0665 43 44.0665Z" fill="black"/>
<path d="M18.9075 42.094C19.1329 35.9988 21.6339 30.2653 25.9496 25.9495C30.2654 21.6336 35.999 19.1327 42.0941 18.9073C48.1566 18.6832 54.0274 20.7206 58.6264 24.6442C59.0201 24.9802 59.612 24.9333 59.948 24.5395C60.284 24.1456 60.2371 23.5538 59.8433 23.2178C54.8858 18.9883 48.558 16.7915 42.0249 17.0337C35.4553 17.2766 29.2754 19.9722 24.6239 24.6237C19.9724 29.2752 17.2768 35.4551 17.0339 42.0247C16.7923 48.5576 18.9885 54.8857 23.218 59.8431C23.4034 60.0605 23.6666 60.1721 23.9316 60.1721C24.1469 60.1721 24.3631 60.0985 24.5396 59.9478C24.9335 59.6118 24.9804 59.0201 24.6444 58.6262C20.7208 54.0272 18.6833 48.1561 18.9075 42.094Z" fill="black"/>
<path d="M62.7821 26.1567C62.4461 25.7628 61.8543 25.7158 61.4605 26.052C61.0666 26.388 61.0197 26.9797 61.3557 27.3736C65.2794 31.9726 67.3167 37.8438 67.0926 43.9058C66.8672 50.001 64.3662 55.7345 60.0505 60.0503C55.7347 64.3662 50.0011 66.8671 43.906 67.0925C37.8445 67.3168 31.9727 65.2793 27.3737 61.3556C26.98 61.0196 26.3881 61.0665 26.0521 61.4603C25.7161 61.8542 25.763 62.446 26.1568 62.782C30.8677 66.8011 36.816 68.9841 43.0019 68.9841C43.3256 68.9841 43.6504 68.9781 43.9753 68.9661C50.545 68.7232 56.7248 66.0276 61.3763 61.3761C66.0278 56.7246 68.7235 50.5447 68.9663 43.9751C69.2078 37.4423 67.0116 31.1142 62.7821 26.1567Z" fill="black"/>
</svg>
