<svg width="86" height="86" viewBox="0 0 86 86" fill="none" xmlns="http://www.w3.org/2000/svg">
<path d="M85 43C85 66.196 66.196 85 43 85C19.804 85 1 66.196 1 43C1 19.804 19.804 1 43 1C66.196 1 85 19.804 85 43Z" fill="#C4C4C4" stroke="black" stroke-width="2"/>
<path d="M43.5 25.0577L26.6094 36.7073V60.8585H60.3906V36.7073L43.5 25.0577Z" fill="#E0E0E0"/>
<path d="M53.0469 23.4054V27.7858L60.3863 32.8475L60.3908 32.8502V23.4053L53.0469 23.4054Z" fill="#4F4F4F"/>
<path d="M43.5 21.2023L22.2031 35.8897L24.0233 38.4902L43.5 25.0578L62.9767 38.4902L64.7969 35.8897L43.5 21.2023Z" fill="#4F4F4F"/>
<path d="M24.4062 60.8585H62.5938V63.796H24.4062V60.8585Z" fill="#4F4F4F"/>
<path d="M29.5469 54.9835H57.4531V57.921H29.5469V54.9835Z" fill="#828282"/>
<path d="M33.9531 49.1085H41.2969C43.3311 49.1085 44.9688 50.7462 44.9688 52.7804V54.9835H30.2812V52.7804C30.2812 50.7462 31.9189 49.1085 33.9531 49.1085Z" fill="#828282"/>
<path d="M37.625 50.5773C35.7661 50.5773 35.4219 49.1085 35.4219 49.1085L35.4219 45.4366H39.8281L39.8281 49.1085C39.8281 49.1085 39.4839 50.5773 37.625 50.5773Z" fill="#BDBDBD"/>
<path d="M43.5 47.6398C43.5 46.8261 44.1551 46.171 44.9687 46.171H55.25C56.0637 46.171 56.7188 46.8261 56.7188 47.6398V53.5148C56.7188 54.3285 56.0637 54.9836 55.25 54.9836H44.9687C44.1551 54.9836 43.5 54.3285 43.5 53.5148L43.5 47.6398Z" fill="#E0E0E0"/>
<path d="M58.1875 35.1884V60.8585H60.3906V36.7073L58.1875 35.1884Z" fill="#E0E0E0"/>
<path d="M43.5 25.0577L26.6094 36.7073V39.3852L43.5014 27.7327L60.3906 39.3823V36.7073L43.5 25.0577Z" fill="#E0E0E0"/>
<path d="M58.1875 23.4054V31.3314L60.3863 32.8475L60.3908 32.8502V23.4053L58.1875 23.4054Z" fill="#BDBDBD"/>
<path d="M60.3935 62.3243C60.395 62.7322 60.0641 63.0632 59.6563 63.0616H24.407L24.4062 63.796H62.5938V60.8585L60.3935 60.86V62.3243Z" fill="#BDBDBD"/>
<path d="M54.5171 55.715C54.9232 55.7166 55.2509 56.0475 55.2486 56.4537C55.2469 56.857 54.9204 57.1835 54.5171 57.1852H29.5469V57.9209H57.4531V55.715H54.5171Z" fill="#828282"/>
<path d="M37.625 45.4366V48.0069V50.5772C39.4839 50.5772 39.8281 49.1085 39.8281 49.1085V45.4366H37.625Z" fill="#828282"/>
<path d="M35.4219 45.4366V48.5118C36.071 48.8888 36.8223 49.1085 37.625 49.1085C38.4277 49.1085 39.179 48.8889 39.8281 48.5118V45.4366H35.4219Z" fill="#828282"/>
<path d="M53.9362 46.171C54.2905 46.5621 54.5142 47.074 54.5142 47.6384V52.046C54.5142 53.2539 53.5203 54.2477 52.3125 54.2477H44.9659C44.4102 54.2477 43.906 54.0301 43.5172 53.6855C43.6022 54.4172 44.2135 54.9836 44.9687 54.9836H55.25C56.0637 54.9836 56.7188 54.3285 56.7188 53.5148V47.6398C56.7188 46.8261 56.0637 46.171 55.25 46.171H53.9362Z" fill="#E0E0E0"/>
<path d="M36.8906 35.8898H38.3594C40.3936 35.8898 42.0313 37.5274 42.0313 39.5616L42.0312 41.7648H33.2188L33.2188 39.5616C33.2188 37.5274 34.8564 35.8898 36.8906 35.8898Z" fill="#4F4F4F"/>
<path d="M37.8186 35.8898C39.0221 36.6758 39.8281 38.0203 39.8281 39.5616V41.3345L40.2584 41.7648H42.0312V39.5616C42.0312 37.5274 40.3936 35.8898 38.3593 35.8898H37.8186Z" fill="#4F4F4F"/>
<path d="M39.8281 40.296C39.8281 40.296 37.625 41.7647 35.4219 41.7647H33.9531V43.2335C33.9531 45.2677 35.5908 46.9053 37.625 46.9053C39.6592 46.9053 41.2969 45.2677 41.2969 43.2335V41.7647L39.8281 40.296Z" fill="#BDBDBD"/>
<path d="M39.8281 40.296C39.8281 40.296 39.5143 40.4817 39.0937 40.7048V43.2335C39.0937 44.7494 38.315 46.0787 37.1445 46.8709C37.3022 46.8904 37.4614 46.9053 37.625 46.9053C39.6592 46.9053 41.2968 45.2677 41.2968 43.2335V41.7647L39.8281 40.296Z" fill="#828282"/>
<path d="M43.4885 20.4622C43.3456 20.4649 43.2062 20.5132 43.0826 20.5985L21.7857 35.286C21.4507 35.5178 21.3683 35.9779 21.6021 36.3115L23.4223 38.9119C23.6541 39.242 24.1088 39.3233 24.4407 39.0941L25.8764 38.1044V43.9693C25.8764 44.9487 27.3452 44.9487 27.3452 43.9693V37.0903L43.5 25.9499L59.6562 37.0917V60.1227H27.3452V50.5773C27.3499 50.163 27.0121 49.8265 26.5979 49.8342C26.1943 49.8426 25.8718 50.1736 25.8764 50.5773V60.1227H24.4077C23.9993 60.1211 23.6681 60.453 23.6704 60.8614V63.7932C23.6689 64.201 23.9999 64.532 24.4077 64.5304H62.5937C63.0016 64.5319 63.3325 64.201 63.331 63.7932V60.8614C63.3333 60.453 63.0021 60.1211 62.5937 60.1227H61.125V38.1044L62.5593 39.0941C62.8912 39.3233 63.3458 39.242 63.5777 38.9119L65.3979 36.3115C65.6317 35.9779 65.5493 35.5178 65.2142 35.286L61.125 32.4661V23.4055C61.125 22.9999 60.7962 22.6711 60.3906 22.6711H53.0469C52.6413 22.6711 52.3125 22.9999 52.3125 23.4055V26.3888L43.9174 20.5985C43.7779 20.5024 43.6315 20.4594 43.4885 20.4622ZM43.5 22.0945L63.7713 36.0749L62.7931 37.4719L43.9174 24.4539C43.6662 24.2805 43.3338 24.2805 43.0826 24.4539L24.2069 37.4719L23.2287 36.0749L43.5 22.0945ZM53.7812 24.1398H59.6562V31.4534L53.7812 27.4015V24.1398ZM28.8154 54.985V57.9225C28.817 58.3258 29.1435 58.6524 29.5469 58.654H57.4546C57.8579 58.6524 58.1844 58.3258 58.1861 57.9225V54.985C58.1884 54.584 57.868 54.2589 57.461 54.2492L57.3169 54.2477C57.398 54.0163 57.4517 53.772 57.4517 53.5148V47.6384C57.4517 46.4305 56.4578 45.4382 55.25 45.4382H44.9659C43.758 45.4382 42.7656 46.4312 42.7656 47.6398V48.6266C42.3066 48.4648 41.8133 48.3757 41.2997 48.3757H40.5625V46.5082C41.4617 45.7008 42.0312 44.5336 42.0312 43.2336V42.4993C42.5261 42.4976 42.7656 42.073 42.7656 41.7764V39.5617C42.7656 37.1333 40.7863 35.1541 38.3579 35.1541H36.8892C34.4608 35.1541 32.4815 37.1334 32.4815 39.5617V41.762C32.4816 42.1687 32.8122 42.4979 33.2187 42.4978V43.2336C33.2187 44.5336 33.7883 45.7008 34.6875 46.5082V48.3743H33.9531C31.5248 48.3743 29.5469 50.3521 29.5469 52.7805V54.2464C29.1407 54.248 28.813 54.5789 28.8154 54.985ZM36.8892 36.6227H38.3579C39.998 36.6227 41.2969 37.9216 41.2969 39.5616V40.7264L40.409 39.8342C40.0417 39.465 39.6966 39.5182 39.4208 39.6866C39.1513 39.8509 37.2283 41.0305 35.4204 41.0305H33.9517V39.5617C33.9517 37.9216 35.2491 36.6227 36.8892 36.6227ZM39.7162 41.2226L40.5625 42.0689V43.2336C40.5625 44.8736 39.2651 46.171 37.625 46.171C35.9849 46.171 34.6875 44.8736 34.6875 43.2336V42.4992H35.4204C37.2339 42.4992 38.9063 41.6863 39.7162 41.2226ZM26.5979 46.1581C26.1922 46.1665 25.8688 46.5011 25.8764 46.9068V47.6384C25.8764 48.6178 27.3452 48.6178 27.3452 47.6384V46.9068C27.353 46.4905 27.0143 46.1503 26.5979 46.1581ZM44.9659 54.2463C44.5463 54.2463 44.2344 53.9343 44.2344 53.5148V47.6384C44.2344 47.2188 44.5463 46.9068 44.9659 46.9068H55.25C55.6695 46.9068 55.9815 47.2188 55.9815 47.6384V53.5148C55.9815 53.9343 55.6695 54.2463 55.25 54.2463H44.9659ZM36.1562 47.3831C36.6166 47.5468 37.1095 47.6398 37.625 47.6398C38.1405 47.6398 38.6334 47.5468 39.0937 47.3831V48.9752C39.0937 48.9752 38.8344 49.843 37.625 49.843C36.4156 49.843 36.1562 48.9752 36.1562 48.9752V47.3831ZM33.9531 49.843H34.9399C34.9399 49.843 35.5841 51.3117 37.625 51.3117C39.6597 51.3117 40.3076 49.8545 40.3115 49.8457H41.2997C41.8411 49.8457 42.3354 49.989 42.7656 50.2373V53.5148C42.7656 53.7721 42.8179 54.0161 42.9004 54.2463H31.0156V52.7804C31.0156 51.1403 32.313 49.843 33.9531 49.843ZM50.1094 49.843C49.7038 49.843 49.375 50.1717 49.375 50.5773C49.375 50.9828 49.7038 51.3117 50.1094 51.3117C50.5149 51.3117 50.8437 50.9828 50.8437 50.5773C50.8437 50.1717 50.5149 49.843 50.1094 49.843ZM30.2841 55.7165H56.7173V57.1853H30.2841V55.7165ZM25.1392 61.5929H61.8622V63.0616H25.1392V61.5929Z" fill="black"/>
</svg>
