<svg width="86" height="86" viewBox="0 0 86 86" fill="none" xmlns="http://www.w3.org/2000/svg">
<path d="M85 43C85 66.196 66.196 85 43 85C19.804 85 1 66.196 1 43C1 19.804 19.804 1 43 1C66.196 1 85 19.804 85 43Z" fill="#C4C4C4" stroke="black" stroke-width="2"/>
<path d="M40.7462 33.7673H32.668C26.1787 33.7673 20.918 39.028 20.918 45.5173V62.408C20.918 64.4358 22.562 66.0798 24.5899 66.0798H48.8243C50.8522 66.0798 52.4962 64.4358 52.4962 62.408V45.5173C52.4962 39.028 47.2355 33.7673 40.7462 33.7673Z" fill="#F2F2F2"/>
<path d="M28.2014 21.6251C29.1393 20.6872 30.6598 20.6872 31.5977 21.6251L31.6037 21.631C32.5392 22.5665 34.0552 22.5692 34.994 21.637L35.018 21.6132C35.9568 20.681 37.4727 20.6836 38.4083 21.6192L38.4143 21.6251C39.3522 22.563 40.8727 22.563 41.8106 21.6251C42.7485 20.6873 44.269 20.6873 45.2069 21.6251L41.6641 28.9938H31.75L28.2014 21.6251Z" fill="#BDBDBD"/>
<path d="M41.6641 28.9939H31.75C30.4319 28.9939 29.3633 30.0625 29.3633 31.3806C29.3633 32.6987 30.4319 33.7673 31.75 33.7673H41.6641C42.9822 33.7673 44.0508 32.6987 44.0508 31.3806C44.0508 30.0625 42.9822 28.9939 41.6641 28.9939Z" fill="#828282"/>
<path d="M66.082 55.4309H47.7227V50.1067H66.082V55.4309Z" fill="#BDBDBD"/>
<path d="M63.4901 60.7554H45.1307V55.4312H63.4901V60.7554Z" fill="#E0E0E0"/>
<path d="M66.082 66.0796H47.7227V60.7554H66.082V66.0796Z" fill="#BDBDBD"/>
<path d="M56.9023 50.1067C61.9721 50.1067 66.082 45.9968 66.082 40.927C66.082 35.8572 61.9721 31.7473 56.9023 31.7473C51.8325 31.7473 47.7227 35.8572 47.7227 40.927C47.7227 45.9968 51.8325 50.1067 56.9023 50.1067Z" fill="#BDBDBD"/>
<path d="M36.707 65.1616C36.4656 65.1616 36.2288 65.2598 36.058 65.4306C35.8873 65.6013 35.7891 65.8382 35.7891 66.0796C35.7891 66.321 35.8873 66.5579 36.058 66.7285C36.2288 66.8992 36.4656 66.9976 36.707 66.9976C36.9485 66.9976 37.1853 66.8993 37.356 66.7285C37.5268 66.5579 37.625 66.321 37.625 66.0796C37.625 65.8382 37.5268 65.6013 37.356 65.4306C37.1853 65.2598 36.9485 65.1616 36.707 65.1616Z" fill="black"/>
<path d="M38.3692 48.9822C38.1236 48.8954 37.8728 48.8048 37.622 48.7107V44.3361C38.2973 44.5266 38.7503 44.8511 38.7675 44.8636C39.1713 45.1664 39.7443 45.086 40.0495 44.6832C40.3556 44.2791 40.2762 43.7033 39.8721 43.3971C39.8163 43.3548 38.9262 42.6934 37.622 42.4506V41.478C37.622 40.9711 37.211 40.5601 36.704 40.5601C36.197 40.5601 35.7861 40.9711 35.7861 41.478V42.4448C35.6175 42.4761 35.4466 42.5163 35.2731 42.5684C33.9467 42.9669 32.9553 44.1014 32.6857 45.5293C32.4397 46.832 32.8564 48.088 33.7731 48.8069C34.2775 49.2026 34.9088 49.5637 35.7861 49.948V55.5175C35.012 55.4732 34.5053 55.3053 33.651 54.7463C33.2266 54.4689 32.6578 54.5877 32.3802 55.012C32.1027 55.4363 32.2216 56.0052 32.646 56.2828C33.8682 57.0823 34.6928 57.3036 35.7861 57.3541V58.3687C35.7861 58.8756 36.1971 59.2866 36.7041 59.2866C37.2111 59.2866 37.6221 58.8756 37.6221 58.3687V57.2606C39.659 56.8265 40.8498 55.132 41.1161 53.5475C41.4626 51.4866 40.3844 49.6946 38.3692 48.9822ZM34.9063 47.3625C34.5312 47.0683 34.3716 46.4964 34.4899 45.87C34.6003 45.2849 34.9992 44.5763 35.7861 44.3321V47.9145C35.4525 47.7392 35.1521 47.5553 34.9063 47.3625ZM39.3056 53.2432C39.1649 54.0804 38.5928 54.9686 37.6221 55.3451V50.6649C37.6675 50.6811 37.711 50.6969 37.7574 50.7133C39.4858 51.3243 39.3794 52.8042 39.3056 53.2432Z" fill="black"/>
<path d="M66.082 49.1889H62.7013C65.2992 47.3599 67 44.3386 67 40.9272C67 35.3593 62.4702 30.8295 56.9023 30.8295C53.3548 30.8295 50.2291 32.6687 48.4275 35.4433C47.1871 34.4961 45.7916 33.7926 44.3093 33.3589C44.7232 32.8069 44.9688 32.1217 44.9688 31.3803C44.9688 30.0295 44.1538 28.8662 42.99 28.3542L46.0341 22.0226C46.203 21.6712 46.1315 21.2515 45.8559 20.9758C44.5615 19.6814 42.4556 19.6814 41.1613 20.9758C40.8811 21.256 40.5086 21.4103 40.1123 21.4103C39.716 21.4103 39.3435 21.2559 39.0658 20.9781C39.0649 20.9773 39.0581 20.9705 39.0574 20.9697C37.7677 19.68 35.6655 19.6764 34.3714 20.9613L34.3472 20.9853C33.7688 21.5598 32.8293 21.5581 32.2469 20.9758C31.6199 20.3488 30.7863 20.0035 29.8997 20.0035C29.013 20.0035 28.1794 20.3488 27.5524 20.9758C27.2766 21.2517 27.2052 21.6717 27.3745 22.0232L30.4235 28.3546C29.26 28.8666 28.4453 30.0298 28.4453 31.3803C28.4453 32.1222 28.6911 32.8076 29.1054 33.3598C23.8493 34.9026 20 39.7684 20 45.517V62.4076C20 64.9385 22.059 66.9975 24.5898 66.9975H32.5762C33.0832 66.9975 33.4941 66.5864 33.4941 66.0795C33.4941 65.5726 33.0832 65.1615 32.5762 65.1615H24.5898C23.0713 65.1615 21.8359 63.9261 21.8359 62.4076V45.517C21.8359 39.5442 26.6952 34.685 32.668 34.685H40.7461C43.2408 34.685 45.6356 35.5374 47.56 37.0969C47.0737 38.2788 46.8047 39.5721 46.8047 40.9272C46.8047 44.3386 48.5055 47.3599 51.1034 49.1889H47.7227C47.2157 49.1889 46.8047 49.5999 46.8047 50.1069V54.5131H45.1308C44.6238 54.5131 44.2128 54.9242 44.2128 55.4311V60.7553C44.2128 61.2622 44.6238 61.6733 45.1308 61.6733H46.8047V65.1615H40.8379C40.3309 65.1615 39.9199 65.5726 39.9199 66.0795C39.9199 66.5864 40.3309 66.9975 40.8379 66.9975H66.082C66.589 66.9975 67 66.5864 67 66.0795V60.7553C67 60.2484 66.589 59.8373 66.082 59.8373H64.4081V56.349H66.082C66.589 56.349 67 55.938 67 55.4311V50.1069C67 49.5999 66.589 49.1889 66.082 49.1889ZM29.8996 21.8395C30.2958 21.8395 30.6684 21.9938 30.9546 22.2799C32.2443 23.5697 34.3467 23.5733 35.6406 22.2883L35.6647 22.2643C36.2432 21.6898 37.1827 21.6915 37.7566 22.2656C37.7575 22.2664 37.7643 22.2732 37.765 22.274C38.392 22.901 39.2256 23.2464 40.1122 23.2464C40.9989 23.2464 41.8325 22.901 42.4595 22.274C42.8854 21.8479 43.5083 21.7357 44.0379 21.9372L41.0868 28.0757H32.3268L29.3702 21.9362C29.5371 21.8726 29.7157 21.8395 29.8996 21.8395ZM31.75 32.849C30.9402 32.849 30.2812 32.1901 30.2812 31.3803C30.2812 30.5705 30.9402 29.9115 31.75 29.9115H41.6641C42.4739 29.9115 43.1328 30.5705 43.1328 31.3803C43.1328 32.1901 42.4739 32.849 41.6641 32.849H31.75ZM48.6406 40.9272C48.6406 36.3717 52.3468 32.6654 56.9023 32.6654C61.4579 32.6654 65.1641 36.3717 65.1641 40.9272C65.1641 45.4827 61.4579 49.1889 56.9023 49.1889C52.3468 49.1889 48.6406 45.4827 48.6406 40.9272ZM65.1641 65.1615H48.8242H48.6406V61.6733H65.1641V65.1615ZM62.5722 59.8373H46.0487V56.349H62.5722V59.8373ZM65.1641 54.5131H48.6406V51.0248H65.1641V54.5131Z" fill="black"/>
<path d="M56.9024 34.7974C53.5223 34.7974 50.7723 37.5472 50.7723 40.9273C50.7723 44.3073 53.5223 47.0572 56.9024 47.0572C60.2824 47.0572 63.0324 44.3073 63.0324 40.9273C63.0324 37.5472 60.2824 34.7974 56.9024 34.7974ZM56.9024 45.2214C54.5346 45.2214 52.6083 43.2951 52.6083 40.9274C52.6083 38.5597 54.5345 36.6334 56.9024 36.6334C59.2702 36.6334 61.1964 38.5597 61.1964 40.9274C61.1964 43.2951 59.2701 45.2214 56.9024 45.2214Z" fill="black"/>
</svg>
