<svg width="86" height="86" viewBox="0 0 86 86" fill="none" xmlns="http://www.w3.org/2000/svg">
<path d="M85 43C85 66.196 66.196 85 43 85C19.804 85 1 66.196 1 43C1 19.804 19.804 1 43 1C66.196 1 85 19.804 85 43Z" fill="#C4C4C4" stroke="black" stroke-width="2"/>
<path d="M38.0323 67.9032V71.9445C38.0323 72.5977 37.501 73.129 36.8478 73.129C36.4907 73.129 36.1597 72.9723 35.9332 72.7023L31.9355 67.9032H22.3549C21.3968 67.9032 20.6129 67.1194 20.6129 66.1613V48.7419C20.6129 47.7839 21.3968 47 22.3549 47H31.3519L32.4494 48.3152C32.6758 48.5852 33.0068 48.7419 33.3639 48.7419C34.0171 48.7419 34.5484 48.2106 34.5484 47.5574V47H41.5161V48.7419C41.5161 49.7 42.3 50.4839 43.2581 50.4839H50.2258V66.1613C50.2258 67.1194 49.4419 67.9032 48.4839 67.9032H38.0323Z" fill="#E6E9ED"/>
<path d="M43.258 43.5161C44.2161 43.5161 45 42.7323 45 41.7742V27.8387H69.3871C70.3451 27.8387 71.129 28.6226 71.129 29.5807V48.7419C71.129 49.7 70.3451 50.4839 69.3871 50.4839H59.8064L55.8087 55.2829C55.5822 55.5529 55.2513 55.7097 54.8942 55.7097C54.241 55.7097 53.7097 55.1784 53.7097 54.5252V50.4839H50.2258H43.258C42.3 50.4839 41.5161 49.7 41.5161 48.7419V47V43.5161H43.258Z" fill="#F2F2F2"/>
<path d="M45 27.8387V41.7742C45 42.7323 44.2161 43.5161 43.2581 43.5161H41.5161H34.5484V47V47.5574C34.5484 48.2106 34.0171 48.7419 33.3639 48.7419C33.0068 48.7419 32.6758 48.5852 32.4494 48.3152L31.3519 47L28.4516 43.5161H20.6129C19.6548 43.5161 18.871 42.7323 18.871 41.7742V22.6129C18.871 21.6548 19.6548 20.871 20.6129 20.871H43.2581C44.2161 20.871 45 21.6548 45 22.6129V27.8387Z" fill="#E0E0E0"/>
<path d="M31.0907 60.0906C30.8294 60.6045 30.6465 61.1794 30.5855 61.7803L30.1936 65.2903H24.0968V63.5484C24.0968 61.1445 26.0478 59.1935 28.4516 59.1935C29.4445 59.1935 30.3591 59.5245 31.0907 60.0906Z" fill="#BDBDBD"/>
<path d="M46.7419 63.5484V65.2903H40.6451L40.2532 61.7803C40.1922 61.1794 40.0093 60.6045 39.748 60.0906C40.4797 59.5245 41.3942 59.1935 42.3871 59.1935C43.589 59.1935 44.6777 59.6813 45.4703 60.4652C46.2542 61.2577 46.7419 62.3464 46.7419 63.5484Z" fill="#BDBDBD"/>
<path d="M40.2533 61.7803L40.6452 65.2903H30.1936L30.5855 61.7803C30.6465 61.1794 30.8294 60.6045 31.0907 60.0907C31.9007 58.5142 33.5468 57.4516 35.4194 57.4516C36.6562 57.4516 37.8059 57.922 38.6681 58.6884C39.1036 59.089 39.4694 59.5594 39.7481 60.0907C40.0094 60.6045 40.1923 61.1794 40.2533 61.7803Z" fill="#BDBDBD"/>
<path d="M42.3871 59.1935C43.8301 59.1935 45 58.0237 45 56.5806C45 55.1376 43.8301 53.9677 42.3871 53.9677C40.944 53.9677 39.7742 55.1376 39.7742 56.5806C39.7742 58.0237 40.944 59.1935 42.3871 59.1935Z" fill="#E0E0E0"/>
<path d="M35.4193 57.4516C36.8624 57.4516 38.0322 56.2818 38.0322 54.8387C38.0322 53.3956 36.8624 52.2258 35.4193 52.2258C33.9762 52.2258 32.8064 53.3956 32.8064 54.8387C32.8064 56.2818 33.9762 57.4516 35.4193 57.4516Z" fill="#E0E0E0"/>
<path d="M28.4516 59.1935C29.8947 59.1935 31.0646 58.0237 31.0646 56.5806C31.0646 55.1376 29.8947 53.9677 28.4516 53.9677C27.0086 53.9677 25.8387 55.1376 25.8387 56.5806C25.8387 58.0237 27.0086 59.1935 28.4516 59.1935Z" fill="#E0E0E0"/>
<path d="M39.7742 30.6606V30.8C39.7742 32.2371 39.1558 33.6132 38.0845 34.5713L31.9355 40.0323L25.7865 34.5713C24.7152 33.6132 24.0968 32.2371 24.0968 30.8V30.6606C24.0968 29.4152 24.5933 28.2132 25.4816 27.3248C26.2655 26.541 27.3368 26.0968 28.4516 26.0968C29.5665 26.0968 30.6378 26.541 31.4216 27.3248L31.9355 27.8387L32.4494 27.3248C33.2333 26.541 34.3045 26.0968 35.4194 26.0968C36.5342 26.0968 37.6055 26.541 38.3894 27.3248C39.2778 28.2132 39.7742 29.4152 39.7742 30.6606Z" fill="#BDBDBD"/>
<path d="M53.7097 45.2581V46.129C53.7097 46.6081 53.3178 47 52.8387 47H49.3549C48.8758 47 48.4839 46.6081 48.4839 46.129V37.4194C48.4839 36.9403 48.8758 36.5484 49.3549 36.5484H52.8387C53.3178 36.5484 53.7097 36.9403 53.7097 37.4194V45.2581Z" fill="#BDBDBD"/>
<path d="M65.9033 39.1613V44.3871C65.9033 45.8329 64.7362 47 63.2904 47H59.4668C57.4113 47 55.4168 46.3903 53.7097 45.2581V37.4193L54.7462 36.3829C55.7739 35.3552 56.5055 34.0574 56.8626 32.6377C57.0542 31.8626 57.751 31.3226 58.5523 31.3226C60.12 31.3226 61.3133 32.7335 61.052 34.2752L60.6775 36.5484H63.2904C64.7362 36.5484 65.9033 37.7155 65.9033 39.1613Z" fill="#E0E0E0"/>
<path d="M40.6452 30.7991V30.6624C40.6452 29.1704 40.0642 27.7682 39.0086 26.7125C38.0506 25.7536 36.7755 25.2258 35.4194 25.2258C34.1129 25.2258 32.8814 25.7162 31.9355 26.6098C30.9896 25.7162 29.7581 25.2258 28.4516 25.2258C27.0955 25.2258 25.8204 25.7536 24.8624 26.7125C23.8068 27.7682 23.2258 29.1704 23.2258 30.6624V30.7991C23.2258 32.4871 23.9496 34.0983 25.2108 35.2193L31.9355 41.1976L38.6594 35.2202C39.9214 34.0992 40.6452 32.4879 40.6452 30.7991ZM31.9355 38.8669L26.3683 33.9181C25.4782 33.1272 24.9678 31.9906 24.9678 30.7991V30.6624C24.9678 29.6355 25.3675 28.6705 26.0939 27.9441C26.7236 27.3144 27.5615 26.9677 28.4516 26.9677C29.3418 26.9677 30.1796 27.3144 30.8093 27.9441L31.9355 29.0703L33.0617 27.9441C34.3211 26.6855 36.5177 26.6855 37.7771 27.9441C38.5035 28.6705 38.9032 29.6355 38.9032 30.6624V30.7991C38.9032 31.9897 38.3929 33.1272 37.5027 33.9181L31.9355 38.8669Z" fill="black"/>
<path d="M69.3871 26.9677H45.871V22.6129C45.871 21.1723 44.6986 20 43.2581 20H20.6129C19.1723 20 18 21.1723 18 22.6129V41.7742C18 43.2148 19.1723 44.3871 20.6129 44.3871H28.044L29.4959 46.129H22.3548C20.9143 46.129 19.7419 47.3014 19.7419 48.7419V66.1613C19.7419 67.6019 20.9143 68.7742 22.3548 68.7742H31.5279L35.2661 73.2597C35.658 73.73 36.2337 74 36.846 74C37.98 74 38.9032 73.0768 38.9032 71.9428V68.7742H48.4839C49.9245 68.7742 51.0968 67.6019 51.0968 66.1613V51.3548H52.8387V54.5234C52.8387 55.6574 53.7619 56.5806 54.8959 56.5806C55.5082 56.5806 56.0839 56.3106 56.4759 55.8403L60.2141 51.3548H69.3871C70.8277 51.3548 72 50.1825 72 48.7419V29.5806C72 28.1401 70.8277 26.9677 69.3871 26.9677ZM28.8592 42.6452H20.6129C20.133 42.6452 19.7419 42.255 19.7419 41.7742V22.6129C19.7419 22.1321 20.133 21.7419 20.6129 21.7419H43.2581C43.738 21.7419 44.129 22.1321 44.129 22.6129V41.7742C44.129 42.255 43.738 42.6452 43.2581 42.6452H33.6774V47.5557C33.6774 47.8248 33.2925 47.9642 33.12 47.7569L28.8592 42.6452ZM40.6452 44.3871V46.129H35.4194V44.3871H40.6452ZM49.3548 66.1613C49.3548 66.6421 48.9638 67.0323 48.4839 67.0323H37.1613V71.9428C37.1613 72.2119 36.7763 72.3513 36.6039 72.144L32.3431 67.0323H22.3548C21.8749 67.0323 21.4839 66.6421 21.4839 66.1613V48.7419C21.4839 48.2612 21.8749 47.871 22.3548 47.871H30.9469L31.7822 48.8726C32.1741 49.3429 32.7498 49.6129 33.3621 49.6129C34.3881 49.6129 35.2338 48.8552 35.3871 47.871H40.6452V48.7419C40.6452 50.1825 41.8175 51.3548 43.2581 51.3548H49.3548V66.1613ZM70.2581 48.7419C70.2581 49.2227 69.867 49.6129 69.3871 49.6129H59.3988L55.1381 54.7246C54.9656 54.9302 54.5806 54.7917 54.5806 54.5234V49.6129H43.2581C42.7782 49.6129 42.3871 49.2227 42.3871 48.7419V44.3871H43.2581C44.6986 44.3871 45.871 43.2148 45.871 41.7742V28.7097H69.3871C69.867 28.7097 70.2581 29.0999 70.2581 29.5806V48.7419Z" fill="black"/>
<path d="M38.9032 56.5806C38.9032 57.0971 39.0234 57.5831 39.2255 58.0238C38.8501 57.6911 38.4321 57.4072 37.98 57.1816C38.5479 56.5615 38.9032 55.7436 38.9032 54.8387C38.9032 52.9173 37.3407 51.3548 35.4194 51.3548C33.498 51.3548 31.9355 52.9173 31.9355 54.8387C31.9355 55.7436 32.2909 56.5615 32.8587 57.1816C32.4067 57.4072 31.9886 57.6911 31.6132 58.0238C31.8153 57.5831 31.9355 57.0971 31.9355 56.5806C31.9355 54.6593 30.373 53.0968 28.4516 53.0968C26.5303 53.0968 24.9678 54.6593 24.9678 56.5806C24.9678 57.5091 25.3379 58.3478 25.9319 58.9732C24.3206 59.8642 23.2258 61.58 23.2258 63.5484V65.2903H24.9678V63.5484C24.9678 61.627 26.5303 60.0645 28.4516 60.0645C29.0003 60.0645 29.5264 60.1951 30.0054 60.4347C29.8678 60.8327 29.7668 61.249 29.718 61.6836L29.3278 65.1936L31.0584 65.3861L31.4486 61.8761C31.6742 59.8502 33.3813 58.3226 35.4194 58.3226C37.4574 58.3226 39.1645 59.8502 39.3901 61.8761L39.7803 65.3861L41.5109 65.1936L41.1207 61.6836C41.0728 61.249 40.9709 60.8327 40.8333 60.4347C41.3123 60.1951 41.8384 60.0645 42.3871 60.0645C44.3085 60.0645 45.871 61.627 45.871 63.5484V65.2903H47.6129V63.5484C47.6129 61.58 46.5181 59.8642 44.9068 58.9732C45.5008 58.3478 45.871 57.5091 45.871 56.5806C45.871 54.6593 44.3085 53.0968 42.3871 53.0968C40.4658 53.0968 38.9032 54.6593 38.9032 56.5806ZM28.4516 58.3226C27.491 58.3226 26.7097 57.5413 26.7097 56.5806C26.7097 55.62 27.491 54.8387 28.4516 54.8387C29.4123 54.8387 30.1936 55.62 30.1936 56.5806C30.1936 57.5413 29.4123 58.3226 28.4516 58.3226ZM35.4194 56.5806C34.4587 56.5806 33.6774 55.7994 33.6774 54.8387C33.6774 53.878 34.4587 53.0968 35.4194 53.0968C36.3801 53.0968 37.1613 53.878 37.1613 54.8387C37.1613 55.7994 36.3801 56.5806 35.4194 56.5806ZM44.1291 56.5806C44.1291 57.5413 43.3478 58.3226 42.3871 58.3226C41.4264 58.3226 40.6452 57.5413 40.6452 56.5806C40.6452 55.62 41.4264 54.8387 42.3871 54.8387C43.3478 54.8387 44.1291 55.62 44.1291 56.5806Z" fill="black"/>
<path d="M63.2903 35.6774H61.7052L61.9151 34.4197C62.0797 33.4294 61.8027 32.4226 61.1539 31.657C60.505 30.8906 59.5574 30.4516 58.554 30.4516C57.3529 30.4516 56.3104 31.266 56.0186 32.4304C55.7033 33.6933 55.0501 34.8465 54.1295 35.768L53.8726 36.0249C53.5825 35.8098 53.2272 35.6774 52.8387 35.6774H49.3549C48.3942 35.6774 47.6129 36.4587 47.6129 37.4193V46.129C47.6129 47.0897 48.3942 47.871 49.3549 47.871H52.8387C53.5991 47.871 54.2392 47.3789 54.477 46.6986C56.0221 47.4651 57.7196 47.871 59.4624 47.871H63.2903C65.2117 47.871 66.7742 46.3084 66.7742 44.3871V39.1613C66.7742 37.2399 65.2117 35.6774 63.2903 35.6774ZM49.3549 46.129V37.4193H52.8387L52.8396 46.129H49.3549ZM65.0323 44.3871C65.0323 45.3478 64.251 46.129 63.2903 46.129H59.4624C57.7336 46.129 56.0569 45.6578 54.5807 44.772V37.7799L55.361 36.9995C56.5046 35.856 57.3172 34.4215 57.7092 32.8529C57.8058 32.4653 58.1534 32.1935 58.554 32.1935C59.0444 32.1935 59.5077 32.4078 59.8248 32.7832C60.1418 33.1577 60.2777 33.6498 60.1967 34.1341L59.6497 37.4193H63.2903C64.251 37.4193 65.0323 38.2006 65.0323 39.1613V44.3871Z" fill="black"/>
</svg>
