<svg width="86" height="86" viewBox="0 0 86 86" fill="none" xmlns="http://www.w3.org/2000/svg">
<path d="M85 43C85 66.196 66.196 85 43 85C19.804 85 1 66.196 1 43C1 19.804 19.804 1 43 1C66.196 1 85 19.804 85 43Z" fill="#C4C4C4" stroke="black" stroke-width="2"/>
<path d="M58.2269 59.1828H27.6889C22.0074 59.1828 17.4017 54.577 17.4017 48.8956V37.1885C17.4017 31.507 22.0076 26.9013 27.6889 26.9013H58.2269C63.9085 26.9013 68.5142 31.5071 68.5142 37.1885V48.8956C68.5142 54.577 63.9083 59.1828 58.2269 59.1828Z" fill="#E0E0E0"/>
<path d="M58.2269 60.5279H27.6889C21.2748 60.5279 16.0566 55.3097 16.0566 48.8956V37.1885C16.0566 30.7744 21.2748 25.5562 27.6889 25.5562H58.2269C64.641 25.5562 69.8592 30.7744 69.8592 37.1885V48.8956C69.8592 55.3097 64.641 60.5279 58.2269 60.5279ZM27.6889 28.2463C22.7583 28.2463 18.7468 32.2578 18.7468 37.1885V48.8956C18.7468 53.8263 22.7583 57.8377 27.6889 57.8377H58.2269C63.1576 57.8377 67.1691 53.8263 67.1691 48.8956V37.1885C67.1691 32.2578 63.1576 28.2463 58.2269 28.2463H27.6889Z" fill="black"/>
<path d="M38.9228 44.3871C39.6656 44.3871 40.2678 43.7849 40.2678 43.0421C40.2678 42.2993 39.6656 41.697 38.9228 41.697H32.1975V34.9717H38.9228C39.6656 34.9717 40.2678 34.3694 40.2678 33.6266C40.2678 32.8838 39.6656 32.2816 38.9228 32.2816H30.8524C30.1096 32.2816 29.5073 32.8838 29.5073 33.6266V52.4575C29.5073 53.2003 30.1096 53.8026 30.8524 53.8026H38.9228C39.6656 53.8026 40.2678 53.2003 40.2678 52.4575C40.2678 51.7147 39.6656 51.1124 38.9228 51.1124H32.1975V44.3871H38.9228Z" fill="black"/>
<path d="M55.0635 32.2816C54.3207 32.2816 53.7184 32.8838 53.7184 33.6266V46.7596L46.851 33.025C46.219 31.7603 44.303 32.2126 44.303 33.6266V52.4575C44.303 53.2003 44.9052 53.8026 45.648 53.8026C46.3909 53.8026 46.9931 53.2003 46.9931 52.4575V39.3245L53.8605 53.0591C54.4927 54.324 56.4086 53.8718 56.4086 52.4575V33.6266C56.4086 32.8838 55.8063 32.2816 55.0635 32.2816Z" fill="black"/>
<path d="M43 86C19.2352 86 0 66.7681 0 43C0 19.2352 19.2319 0 43 0C66.7648 0 86 19.2319 86 43C86 66.7648 66.7681 86 43 86ZM43 2.69013C20.773 2.69013 2.69013 20.773 2.69013 43C2.69013 65.227 20.773 83.3099 43 83.3099C65.227 83.3099 83.3099 65.227 83.3099 43C83.3099 20.773 65.227 2.69013 43 2.69013Z" fill="black"/>
</svg>
