<svg width="86" height="86" viewBox="0 0 86 86" fill="none" xmlns="http://www.w3.org/2000/svg">
<path d="M85 43C85 66.196 66.196 85 43 85C19.804 85 1 66.196 1 43C1 19.804 19.804 1 43 1C66.196 1 85 19.804 85 43Z" fill="#C4C4C4" stroke="black" stroke-width="2"/>
<g clip-path="url(#clip0)">
<path d="M66.9861 39.5829C66.1704 38.9815 65.1426 38.2303 65.0182 37.7395C65.0705 36.7894 65.3418 35.8644 65.8109 35.0366C66.5298 33.3867 67.2717 31.677 66.4469 30.2553C65.622 28.8335 63.7462 28.6031 61.942 28.4118C61.0069 28.4056 60.0855 28.1857 59.2483 27.7689C58.831 26.9288 58.6118 26.0041 58.6077 25.0661C58.405 23.2618 58.1952 21.3954 56.7643 20.5612C55.3333 19.727 53.6212 20.4575 51.9715 21.1856C51.1428 21.6545 50.217 21.9257 49.2663 21.9783C48.7686 21.8447 48.0198 20.8262 47.4229 20.0105C46.3768 18.6003 45.1992 17.0012 43.4987 17.0012C41.7982 17.0012 40.6207 18.6003 39.5815 20.0105C38.9778 20.8284 38.2288 21.8539 37.738 21.9806C36.7882 21.9234 35.8634 21.6525 35.0329 21.1879C33.3738 20.4574 31.6641 19.7293 30.247 20.5497C28.8299 21.37 28.5926 23.2503 28.3897 25.066C28.3831 26.0008 28.1641 26.9219 27.7491 27.7597C26.9135 28.1704 25.9957 28.3862 25.0647 28.391C23.2582 28.5937 21.3894 28.8035 20.5576 30.2344C19.7258 31.6654 20.4564 33.3753 21.1845 35.0274C21.6551 35.8579 21.9264 36.7863 21.9772 37.7395C21.8436 38.2372 20.825 38.9884 20.0093 39.5829C18.5991 40.6198 17 41.7996 17 43.5002C17 45.2007 18.5991 46.3805 20.0117 47.4174C20.8274 48.0188 21.8551 48.7701 21.9796 49.2609C21.9273 50.2109 21.6559 51.136 21.1869 51.9638C20.4679 53.6136 19.726 55.3233 20.5509 56.7451C21.3758 58.1669 23.2515 58.3973 25.0557 58.5885C25.9909 58.5948 26.9122 58.8147 27.7494 59.2314C28.1668 60.0715 28.3859 60.9962 28.39 61.9343C28.5928 63.7385 28.8025 65.605 30.2335 66.4391C31.6644 67.2733 33.3627 66.5221 35.0148 65.8032C35.8518 65.3395 36.783 65.0717 37.7384 65.0198C38.2362 65.1534 38.985 66.1719 39.5819 66.9876C40.6211 68.3978 41.7986 69.9969 43.4991 69.9969C45.1997 69.9969 46.3771 68.3978 47.4164 66.9876C48.0201 66.1697 48.769 65.1442 49.2598 65.0175C50.2103 65.0713 51.1358 65.3424 51.965 65.8102C53.6149 66.5291 55.3246 67.2665 56.744 66.4484C58.1633 65.6305 58.3984 63.7478 58.6012 61.9413C58.6078 61.0065 58.8269 60.0854 59.2418 59.2476C60.0789 58.8335 60.9993 58.6152 61.9332 58.6094C63.7397 58.4067 65.6085 58.1969 66.4403 56.7659C67.2721 55.335 66.521 53.6367 65.8043 51.9846C65.3352 51.1499 65.067 50.2173 65.0209 49.261C65.1545 48.7633 66.173 48.012 66.9888 47.4175C68.399 46.3784 70.0004 45.1986 70.0004 43.5003C70.0004 41.802 68.3985 40.6198 66.9861 39.5829Z" fill="#E0E0E0"/>
<path d="M43.4988 69.9989C41.7983 69.9989 40.6185 68.3998 39.5816 66.9872C38.9801 66.1715 38.2289 65.1438 37.7381 65.0193C36.7876 65.0689 35.862 65.3404 35.0352 65.812C33.3831 66.531 31.6734 67.2753 30.2516 66.448C28.8299 65.6208 28.6017 63.7474 28.4082 61.9432C28.4015 61.0074 28.1816 60.0854 27.7653 59.2472C26.9253 58.832 26.0017 58.6137 25.0647 58.609C23.2582 58.4062 21.3918 58.1965 20.5576 56.7517C19.7234 55.3069 20.4564 53.6226 21.1845 51.9728C21.655 51.1421 21.9271 50.214 21.9794 49.2608C21.8458 48.7631 20.8273 48.0142 20.0093 47.4173C18.5991 46.378 17 45.1983 17 43.5001C17 41.8018 18.5991 40.6221 20.0093 39.5828C20.8273 38.9791 21.8527 38.2302 21.9772 37.7394C21.9252 36.7886 21.6539 35.8627 21.1845 35.0342C20.4564 33.3752 19.7259 31.6677 20.5485 30.246C21.3711 28.8242 23.2491 28.5938 25.0648 28.3911C26 28.3848 26.9213 28.1649 27.7585 27.7482C28.1695 26.9136 28.3854 25.9964 28.3898 25.0661C28.5926 23.2618 28.8023 21.3931 30.2333 20.5612C31.6642 19.7294 33.3716 20.4575 35.0261 21.1856C35.8549 21.6599 36.7843 21.9316 37.7381 21.9783C38.2358 21.8447 38.9871 20.8262 39.5816 20.0105C40.6185 18.6003 41.7983 17.0012 43.4988 17.0012C45.1993 17.0012 46.3792 18.6004 47.4161 20.0128C48.0175 20.8286 48.7687 21.8563 49.2595 21.9807C50.2104 21.9335 51.1366 21.6619 51.9624 21.188C53.6099 20.4714 55.3197 19.7179 56.7437 20.552C58.1678 21.3862 58.3959 23.2527 58.5872 25.0591C58.5941 25.9942 58.814 26.9154 59.2301 27.7529C60.0707 28.1684 60.9952 28.3867 61.9329 28.3911C63.7394 28.5938 65.6059 28.8036 66.44 30.2484C67.2742 31.6931 66.5415 33.3776 65.8133 35.0273C65.3428 35.858 65.0707 36.7862 65.0183 37.7394C65.1519 38.2371 66.1704 38.986 66.9884 39.5828C68.3986 40.622 69.9977 41.8018 69.9977 43.5001C69.9977 45.1983 68.3986 46.378 66.9884 47.4173C66.1704 48.021 65.145 48.77 65.0206 49.2608C65.0725 50.2116 65.3438 51.1375 65.8133 51.9659C66.5322 53.6181 67.2741 55.3255 66.4492 56.7473C65.6243 58.169 63.7486 58.3994 61.9421 58.5907C61.007 58.597 60.0856 58.8169 59.2484 59.2336C58.832 60.0733 58.613 60.997 58.6078 61.9342C58.4051 63.7407 58.1953 65.6095 56.7644 66.4413C55.3334 67.2731 53.6329 66.5196 51.983 65.8053C51.1497 65.3329 50.2164 65.0645 49.2594 65.0219C48.7617 65.1555 48.0105 66.1741 47.416 66.9898C46.3792 68.3998 45.1993 69.9989 43.4988 69.9989ZM37.5239 62.6921C37.7945 62.6908 38.0641 62.725 38.3258 62.7935C39.6364 63.3776 40.7235 64.3692 41.425 65.6209C42.0333 66.4457 42.9527 67.6947 43.4988 67.6947C44.0449 67.6947 44.9528 66.4481 45.5726 65.6209C46.2762 64.367 47.3667 63.3742 48.6811 62.7913C50.1484 62.6326 51.628 62.9509 52.9001 63.6991C53.8218 64.0954 55.1883 64.6968 55.6077 64.4549C56.0271 64.2129 56.2137 62.6875 56.3266 61.6898C56.3091 60.2297 56.766 58.8033 57.6285 57.6251C58.8078 56.7627 60.2346 56.3052 61.6954 56.3208C62.6978 56.208 64.2117 56.0397 64.4605 55.6019C64.7094 55.1641 64.1011 53.8069 63.7048 52.8921C62.9541 51.6217 62.6363 50.1419 62.7992 48.6753C63.3804 47.3645 64.3697 46.2765 65.6196 45.5738C66.4445 44.9655 67.6934 44.0461 67.6934 43.5C67.6934 42.9539 66.4468 42.046 65.6196 41.4377C64.3649 40.7329 63.3722 39.6407 62.79 38.3247C62.6283 36.8582 62.946 35.3788 63.6956 34.1079C64.0919 33.1863 64.6933 31.8037 64.4513 31.4004C64.2094 30.9972 62.6839 30.7921 61.6862 30.6815C60.2254 30.6991 58.7982 30.2423 57.6193 29.3796C56.7562 28.2007 56.2986 26.7736 56.315 25.3127C56.2022 24.308 56.0316 22.7941 55.5961 22.5476C55.1606 22.301 53.8011 22.907 52.8886 23.3033C51.618 24.0558 50.1371 24.3746 48.6695 24.2112C47.3591 23.6255 46.2729 22.6322 45.5726 21.3792C44.9643 20.5543 44.0449 19.3054 43.4988 19.3054C42.9527 19.3054 42.0449 20.5519 41.425 21.3792C40.7233 22.6308 39.6364 23.6225 38.3258 24.2065C36.8583 24.3695 35.3774 24.0509 34.1068 23.2987C33.1851 22.9024 31.8187 22.2986 31.3992 22.5429C30.9798 22.7871 30.7932 24.3103 30.6803 25.308C30.6972 26.7691 30.2395 28.1962 29.3761 29.375C28.1968 30.2374 26.77 30.695 25.3091 30.6792C24.3068 30.7921 22.7929 30.9604 22.544 31.3981C22.2952 31.8359 22.9035 33.1932 23.2998 34.1079C24.0505 35.3784 24.3682 36.8581 24.2053 38.3247C23.6224 39.6366 22.6305 40.7246 21.378 41.4263C20.5531 42.0346 19.3042 42.954 19.3042 43.5001C19.3042 44.0462 20.5508 44.954 21.378 45.5623C22.6327 46.2671 23.6254 47.3593 24.2076 48.6753C24.3693 50.1418 24.0515 51.6213 23.302 52.8921C22.9058 53.8138 22.3043 55.1963 22.5463 55.5996C22.7882 56.0029 24.3137 56.208 25.3114 56.3208C26.7722 56.3032 28.1994 56.76 29.3783 57.6227C30.2418 58.8024 30.6993 60.2302 30.6826 61.692C30.7932 62.6944 30.9637 64.2083 31.3992 64.4571C31.8347 64.706 33.1943 64.0977 34.109 63.7014C35.1704 63.1448 36.3305 62.8019 37.5239 62.6921Z" fill="black"/>
<path d="M36.5861 49.2606C36.2235 49.2606 35.882 49.0898 35.6645 48.7997L30.8256 42.3479V48.1084C30.8256 48.7447 30.3097 49.2606 29.6734 49.2606C29.0371 49.2606 28.5212 48.7447 28.5212 48.1084V38.8915C28.5212 38.2552 29.0371 37.7393 29.6734 37.7393C30.036 37.7393 30.3775 37.9101 30.5951 38.2002L35.434 44.6521V38.8915C35.434 38.2552 35.9498 37.7393 36.5861 37.7393C37.2224 37.7393 37.7383 38.2552 37.7383 38.8915V48.1084C37.739 48.605 37.4214 49.0461 36.9503 49.2029C36.8325 49.2408 36.7098 49.2602 36.5861 49.2606Z" fill="black"/>
<path d="M45.8032 49.2606H41.1946C40.5583 49.2606 40.0425 48.7447 40.0425 48.1084V38.8915C40.0425 38.2552 40.5583 37.7393 41.1946 37.7393H45.8032C46.4395 37.7393 46.9553 38.2552 46.9553 38.8915C46.9553 39.5278 46.4395 40.0436 45.8032 40.0436H42.3468V46.9564H45.8032C46.4395 46.9564 46.9553 47.4722 46.9553 48.1085C46.9552 48.7448 46.4395 49.2606 45.8032 49.2606Z" fill="black"/>
<path d="M45.8032 44.6522H41.1946C40.5583 44.6522 40.0425 44.1363 40.0425 43.5C40.0425 42.8637 40.5583 42.3478 41.1946 42.3478H45.8032C46.4395 42.3478 46.9553 42.8637 46.9553 43.5C46.9552 44.1363 46.4395 44.6522 45.8032 44.6522Z" fill="black"/>
<path d="M57.3242 49.2606C56.8286 49.2603 56.3886 48.9428 56.232 48.4726L55.02 44.8388L53.808 48.4727C53.6058 49.076 52.9528 49.4011 52.3496 49.1989C51.9772 49.0742 51.694 48.7683 51.5983 48.3873L49.2941 39.1704C49.1258 38.5568 49.4869 37.9228 50.1005 37.7546C50.7141 37.5863 51.3481 37.9474 51.5163 38.561C51.5211 38.5782 51.5253 38.5953 51.5293 38.6127L52.875 43.9908L53.928 40.8317C54.2001 40.2285 54.9098 39.9601 55.513 40.2322C55.7792 40.3524 55.9924 40.5656 56.1125 40.8317L57.1655 43.9908L58.5112 38.6127C58.6508 37.992 59.2674 37.6019 59.8881 37.7416C60.5089 37.8813 60.8989 38.4978 60.7592 39.1185C60.7553 39.1359 60.751 39.1532 60.7463 39.1704L58.4421 48.3873C58.3184 48.885 57.8806 49.241 57.3683 49.2606H57.3242Z" fill="black"/>
</g>
<defs>
<clipPath id="clip0">
<rect width="53" height="53" fill="white" transform="translate(17 17)"/>
</clipPath>
</defs>
</svg>
