<svg width="23" height="23" viewBox="0 0 23 23" fill="none" xmlns="http://www.w3.org/2000/svg">
<g clip-path="url(#clip0)">
<path d="M0.898417 12.3984L19.9254 12.3984L16.7735 15.5351C16.4218 15.8851 16.4205 16.4539 16.7705 16.8056C17.1206 17.1574 17.6895 17.1587 18.0411 16.8087L22.7357 12.1368C22.736 12.1365 22.7362 12.1362 22.7365 12.136C23.0873 11.7859 23.0884 11.2152 22.7366 10.864C22.7362 10.8638 22.736 10.8635 22.7358 10.8632L18.0412 6.19132C17.6896 5.84138 17.1207 5.84259 16.7706 6.19437C16.4206 6.54606 16.4219 7.11491 16.7736 7.46494L19.9254 10.6016L0.898417 10.6016C0.402211 10.6016 -2.04505e-05 11.0038 -2.04939e-05 11.5C-2.05372e-05 11.9962 0.402211 12.3984 0.898417 12.3984Z" fill="white"/>
</g>
<defs>
<clipPath id="clip0">
<rect width="23" height="23" fill="white" transform="translate(23 23) rotate(-180)"/>
</clipPath>
</defs>
</svg>
