<svg width="191" height="50" viewBox="0 0 191 50" fill="none" xmlns="http://www.w3.org/2000/svg">
<path d="M59.488 24.0235V7.52588H63.398C64.4936 7.52588 65.438 7.65923 66.1936 7.92594C66.9491 8.19264 67.5347 8.64985 67.9314 9.27852C68.328 9.92623 68.5358 10.7835 68.5358 11.8884C68.5358 12.5552 68.4791 13.1458 68.3469 13.6792C68.2147 14.2126 68.0258 14.6698 67.7236 15.0317C67.4402 15.4127 67.0247 15.6985 66.5147 15.889L68.8002 24.0235H65.8158L63.8325 16.4605H62.4536V24.0235H59.488ZM62.4725 14.5745H63.398C63.9836 14.5745 64.4369 14.4983 64.7769 14.3269C65.1169 14.1554 65.3625 13.8887 65.5136 13.5077C65.6647 13.1267 65.7402 12.6504 65.7402 12.0789C65.7402 11.2598 65.5891 10.6311 65.2869 10.212C64.9847 9.79288 64.3991 9.58332 63.568 9.58332H62.4725V14.5745Z" fill="white"/>
<path d="M74.1836 24.214C73.3147 24.214 72.5969 24.0425 72.0491 23.7187C71.5014 23.3948 71.0858 22.8995 70.8214 22.2518C70.5569 21.6041 70.4247 20.823 70.4247 19.9276V16.3843C70.4247 15.4508 70.5569 14.6507 70.8214 14.022C71.0858 13.3743 71.5014 12.898 72.0491 12.5742C72.6158 12.2503 73.3147 12.0789 74.1836 12.0789C75.1091 12.0789 75.8458 12.2503 76.3558 12.6123C76.8658 12.9742 77.2436 13.4695 77.4702 14.1554C77.6969 14.8412 77.8102 15.6413 77.8102 16.6129V18.2893H73.1447V20.6134C73.1447 20.9945 73.1825 21.2993 73.258 21.5469C73.3336 21.7946 73.4469 21.966 73.6169 22.0803C73.7869 22.1946 73.9758 22.2518 74.2025 22.2518C74.448 22.2518 74.6369 22.1946 74.788 22.0803C74.9391 21.966 75.0525 21.7946 75.1091 21.566C75.1847 21.3374 75.2036 21.0516 75.2036 20.7277V19.7562H77.7725V20.5563C77.7725 21.7565 77.4702 22.6709 76.8847 23.2996C76.2802 23.8901 75.3925 24.214 74.1836 24.214ZM73.1447 16.8986H75.2036V15.7746C75.2036 15.3746 75.1658 15.0317 75.1091 14.784C75.0336 14.5364 74.9391 14.3459 74.788 14.2316C74.6369 14.1173 74.4291 14.0601 74.1647 14.0601C73.9191 14.0601 73.7302 14.1173 73.5791 14.2506C73.428 14.3649 73.3147 14.5745 73.258 14.8602C73.1825 15.146 73.1636 15.546 73.1636 16.0794V16.8986H73.1447Z" fill="white"/>
<path d="M79.6425 24.0235V12.2503H82.2869V13.26C82.6836 12.8219 83.1369 12.517 83.6091 12.3075C84.0813 12.117 84.5536 12.0027 85.0447 12.0027C85.498 12.0027 85.8947 12.117 86.2536 12.3456C86.5936 12.5742 86.858 12.9362 87.0091 13.4505C87.4625 12.9362 87.9158 12.5551 88.4258 12.3456C88.9169 12.117 89.4269 12.0027 89.9558 12.0027C90.3714 12.0027 90.7491 12.117 91.0702 12.3265C91.3914 12.5361 91.6558 12.8409 91.8447 13.26C92.0336 13.6791 92.128 14.1935 92.128 14.8221V24.0044H89.5025V15.0698C89.5025 14.6126 89.4269 14.3078 89.2758 14.1363C89.1247 13.9649 88.9169 13.8887 88.6525 13.8887C88.4447 13.8887 88.1991 13.9458 87.9347 14.0792C87.6702 14.2125 87.4247 14.3649 87.2169 14.5935C87.2169 14.6316 87.2169 14.6697 87.2169 14.7078C87.2169 14.7459 87.2169 14.784 87.2169 14.8412V24.0235H84.6102V15.0889C84.6102 14.6316 84.5347 14.3268 84.3836 14.1554C84.2325 13.9839 84.0247 13.9077 83.7413 13.9077C83.5336 13.9077 83.288 13.9649 83.0425 14.0982C82.778 14.2125 82.5513 14.384 82.3058 14.6126V24.0425H79.6425V24.0235Z" fill="white"/>
<path d="M97.6814 24.214C96.8314 24.214 96.1325 24.0616 95.5847 23.7377C95.0369 23.4139 94.6214 22.9566 94.338 22.347C94.0547 21.7374 93.9225 20.9945 93.9225 20.1181V16.1747C93.9225 15.2984 94.0547 14.5745 94.338 13.9458C94.6214 13.3362 95.0369 12.879 95.5847 12.5551C96.1325 12.2313 96.8314 12.0789 97.6814 12.0789C98.5314 12.0789 99.2303 12.2313 99.7969 12.5551C100.364 12.879 100.779 13.3362 101.044 13.9458C101.327 14.5554 101.459 15.2984 101.459 16.1747V20.1181C101.459 20.9945 101.327 21.7184 101.044 22.347C100.76 22.9566 100.345 23.4329 99.7969 23.7377C99.2303 24.0616 98.5314 24.214 97.6814 24.214ZM97.7003 22.3089C98.0025 22.3089 98.2291 22.2137 98.3803 22.0422C98.5314 21.8708 98.6258 21.6231 98.6636 21.3183C98.7014 21.0135 98.7203 20.6706 98.7203 20.3086V15.9842C98.7203 15.6222 98.7014 15.2793 98.6636 14.9936C98.6258 14.6888 98.5314 14.4602 98.3803 14.2697C98.2291 14.0792 98.0025 14.0029 97.7003 14.0029C97.398 14.0029 97.1525 14.0982 97.0203 14.2697C96.8692 14.4602 96.7747 14.6888 96.718 14.9936C96.6614 15.2984 96.6425 15.6222 96.6425 15.9842V20.3086C96.6425 20.6706 96.6614 21.0135 96.718 21.3183C96.7747 21.6231 96.8692 21.8708 97.0203 22.0422C97.1714 22.2137 97.398 22.3089 97.7003 22.3089Z" fill="white"/>
<path d="M106.71 24.176C105.974 24.176 105.388 24.0617 104.954 23.814C104.538 23.5663 104.236 23.2234 104.047 22.7472C103.877 22.29 103.782 21.7375 103.782 21.0898V14.0983H102.611V12.2695H103.782V8.72607H106.578V12.2504H108.354V14.0792H106.578V20.8421C106.578 21.2422 106.672 21.547 106.842 21.6994C107.012 21.8709 107.277 21.9471 107.636 21.9471C107.787 21.9471 107.938 21.9471 108.07 21.928C108.202 21.909 108.354 21.909 108.486 21.8899V24.0045C108.259 24.0236 107.995 24.0617 107.692 24.0998C107.371 24.1569 107.05 24.176 106.71 24.176Z" fill="white"/>
<path d="M110.224 24.0235V7.52588H117.099V9.64047H113.227V14.384H116.268V16.4796H113.227V21.947H117.137V24.0235H110.224Z" fill="white"/>
<path d="M118.686 24.0235V12.2503H121.33V13.26C121.727 12.8219 122.18 12.517 122.652 12.3075C123.125 12.117 123.597 12.0027 124.088 12.0027C124.541 12.0027 124.938 12.117 125.297 12.3456C125.637 12.5742 125.901 12.9362 126.052 13.4505C126.506 12.9362 126.959 12.5551 127.469 12.3456C127.96 12.117 128.47 12.0027 128.999 12.0027C129.415 12.0027 129.792 12.117 130.114 12.3265C130.435 12.5361 130.699 12.8409 130.888 13.26C131.077 13.6791 131.171 14.1935 131.171 14.8221V24.0044H128.546V15.0698C128.546 14.6126 128.47 14.3078 128.319 14.1363C128.168 13.9649 127.96 13.8887 127.696 13.8887C127.488 13.8887 127.242 13.9458 126.978 14.0792C126.714 14.2125 126.468 14.3649 126.26 14.5935C126.26 14.6316 126.26 14.6697 126.26 14.7078C126.26 14.7459 126.26 14.784 126.26 14.8412V24.0235H123.654V15.0889C123.654 14.6316 123.578 14.3268 123.427 14.1554C123.276 13.9839 123.068 13.9077 122.785 13.9077C122.577 13.9077 122.331 13.9649 122.086 14.0982C121.821 14.2125 121.595 14.384 121.368 14.6126V24.0425H118.686V24.0235Z" fill="white"/>
<path d="M133.193 27.9097V12.2694H135.931V13.1647C136.271 12.8409 136.63 12.5742 137.046 12.3837C137.443 12.1932 137.877 12.0789 138.311 12.0789C138.84 12.0789 139.275 12.1932 139.596 12.4408C139.936 12.6885 140.2 13.0123 140.389 13.4124C140.578 13.8124 140.71 14.2316 140.786 14.6888C140.861 15.146 140.899 15.5841 140.899 16.0032V20.0038C140.899 20.7849 140.805 21.4898 140.635 22.1184C140.446 22.7661 140.163 23.2614 139.766 23.6425C139.369 24.0235 138.84 24.214 138.179 24.214C137.764 24.214 137.367 24.1187 136.989 23.9092C136.611 23.6996 136.271 23.452 135.931 23.1281V27.8907H133.193V27.9097ZM137.159 22.2899C137.461 22.2899 137.669 22.1946 137.82 21.9851C137.953 21.7946 138.047 21.5279 138.104 21.185C138.141 20.8611 138.179 20.4801 138.179 20.0991V15.8889C138.179 15.527 138.16 15.1841 138.104 14.8983C138.047 14.6126 137.953 14.3649 137.801 14.1935C137.65 14.022 137.443 13.9267 137.159 13.9267C136.951 13.9267 136.725 13.9839 136.517 14.0792C136.309 14.1744 136.12 14.3078 135.969 14.4411V21.8708C136.139 21.9851 136.328 22.0994 136.536 22.1756C136.706 22.2518 136.933 22.2899 137.159 22.2899Z" fill="white"/>
<path d="M142.996 24.0235V7.52588H145.716V24.0235H142.996Z" fill="white"/>
<path d="M151.439 24.214C150.589 24.214 149.89 24.0616 149.343 23.7377C148.795 23.4139 148.379 22.9566 148.096 22.347C147.813 21.7374 147.68 20.9945 147.68 20.1181V16.1747C147.68 15.2984 147.813 14.5745 148.096 13.9458C148.379 13.3362 148.795 12.879 149.343 12.5551C149.89 12.2313 150.589 12.0789 151.439 12.0789C152.289 12.0789 152.988 12.2313 153.555 12.5551C154.121 12.879 154.537 13.3362 154.801 13.9458C155.085 14.5554 155.217 15.2984 155.217 16.1747V20.1181C155.217 20.9945 155.085 21.7184 154.801 22.347C154.518 22.9566 154.103 23.4329 153.555 23.7377C152.988 24.0616 152.289 24.214 151.439 24.214ZM151.458 22.3089C151.76 22.3089 152.006 22.2137 152.138 22.0422C152.289 21.8708 152.384 21.6231 152.421 21.3183C152.459 21.0135 152.478 20.6706 152.478 20.3086V15.9842C152.478 15.6222 152.459 15.2793 152.421 14.9936C152.384 14.6888 152.289 14.4602 152.138 14.2697C151.987 14.0792 151.76 14.0029 151.458 14.0029C151.156 14.0029 150.91 14.0982 150.778 14.2697C150.627 14.4602 150.533 14.6888 150.476 14.9936C150.419 15.2984 150.4 15.6222 150.4 15.9842V20.3086C150.4 20.6706 150.419 21.0135 150.476 21.3183C150.514 21.6231 150.627 21.8708 150.778 22.0422C150.91 22.2137 151.137 22.3089 151.458 22.3089Z" fill="white"/>
<path d="M157.125 27.2241V25.2238C157.597 25.2238 157.975 25.2048 158.277 25.1476C158.579 25.0905 158.787 24.9952 158.919 24.8619C159.051 24.7285 159.127 24.538 159.127 24.2903C159.127 24.1189 159.089 23.8331 158.995 23.4521C158.9 23.0711 158.806 22.652 158.693 22.2139L156.124 12.2505H158.787L160.298 20.004L161.62 12.2505H164.265L161.545 24.4999C161.394 25.1857 161.148 25.7382 160.789 26.1382C160.43 26.5383 159.996 26.805 159.467 26.9765C158.938 27.1479 158.334 27.2241 157.635 27.2241H157.125Z" fill="white"/>
<path d="M169.081 24.214C168.213 24.214 167.495 24.0425 166.947 23.7187C166.399 23.3948 165.984 22.8995 165.719 22.2518C165.455 21.6041 165.323 20.823 165.323 19.9276V16.3843C165.323 15.4508 165.455 14.6507 165.719 14.022C165.984 13.3743 166.399 12.898 166.947 12.5742C167.514 12.2503 168.213 12.0789 169.081 12.0789C170.007 12.0789 170.744 12.2503 171.254 12.6123C171.764 12.9742 172.141 13.4695 172.368 14.1554C172.595 14.8221 172.708 15.6413 172.708 16.6129V18.2893H168.061V20.6134C168.061 20.9945 168.099 21.2993 168.175 21.5469C168.25 21.7946 168.364 21.966 168.534 22.0803C168.704 22.1946 168.893 22.2518 169.119 22.2518C169.365 22.2518 169.554 22.1946 169.705 22.0803C169.856 21.966 169.969 21.7946 170.026 21.566C170.101 21.3374 170.12 21.0516 170.12 20.7277V19.7562H172.689V20.5563C172.689 21.7565 172.387 22.6709 171.801 23.2996C171.197 23.8901 170.309 24.214 169.081 24.214ZM168.061 16.8986H170.12V15.7746C170.12 15.3746 170.083 15.0317 170.026 14.784C169.95 14.5364 169.856 14.3459 169.705 14.2316C169.554 14.1173 169.346 14.0601 169.081 14.0601C168.836 14.0601 168.647 14.1173 168.496 14.2506C168.345 14.3649 168.231 14.5745 168.175 14.8602C168.099 15.146 168.08 15.546 168.08 16.0794V16.8986H168.061Z" fill="white"/>
<path d="M178.091 24.214C177.223 24.214 176.505 24.0425 175.957 23.7187C175.409 23.3948 174.994 22.8995 174.729 22.2518C174.465 21.6041 174.333 20.823 174.333 19.9276V16.3843C174.333 15.4508 174.465 14.6507 174.729 14.022C174.994 13.3743 175.409 12.898 175.957 12.5742C176.524 12.2503 177.223 12.0789 178.091 12.0789C179.017 12.0789 179.754 12.2503 180.264 12.6123C180.774 12.9742 181.151 13.4695 181.378 14.1554C181.605 14.8221 181.718 15.6413 181.718 16.6129V18.2893H177.071V20.6134C177.071 20.9945 177.109 21.2993 177.185 21.5469C177.26 21.7946 177.374 21.966 177.544 22.0803C177.714 22.1946 177.903 22.2518 178.129 22.2518C178.375 22.2518 178.564 22.1946 178.715 22.0803C178.866 21.966 178.979 21.7946 179.036 21.566C179.111 21.3374 179.13 21.0516 179.13 20.7277V19.7562H181.699V20.5563C181.699 21.7565 181.397 22.6709 180.811 23.2996C180.207 23.8901 179.319 24.214 178.091 24.214ZM177.071 16.8986H179.13V15.7746C179.13 15.3746 179.093 15.0317 179.036 14.784C178.96 14.5364 178.866 14.3459 178.715 14.2316C178.564 14.1173 178.356 14.0601 178.091 14.0601C177.846 14.0601 177.657 14.1173 177.506 14.2506C177.355 14.3649 177.241 14.5745 177.185 14.8602C177.109 15.146 177.09 15.546 177.09 16.0794V16.8986H177.071Z" fill="white"/>
<path d="M186.742 24.214C185.76 24.214 184.948 23.9473 184.325 23.4139C183.682 22.8805 183.248 22.1184 182.965 21.0897L185.005 20.2896C185.175 20.9373 185.382 21.4136 185.647 21.7565C185.911 22.0994 186.27 22.2708 186.705 22.2708C187.026 22.2708 187.271 22.1946 187.422 22.0232C187.574 21.8517 187.668 21.6422 187.668 21.3564C187.668 21.0326 187.574 20.7278 187.385 20.4611C187.196 20.1943 186.856 19.8705 186.384 19.4704L184.967 18.2703C184.457 17.813 184.041 17.3558 183.72 16.8986C183.399 16.4224 183.248 15.8509 183.248 15.1269C183.248 14.4792 183.399 13.9458 183.682 13.4886C183.966 13.0314 184.362 12.6885 184.872 12.4218C185.382 12.1741 185.93 12.0408 186.554 12.0408C187.498 12.0408 188.254 12.3265 188.82 12.879C189.387 13.4505 189.765 14.1744 189.916 15.0888L188.121 15.8699C188.046 15.546 187.951 15.2412 187.819 14.9555C187.687 14.6697 187.517 14.4411 187.328 14.2697C187.12 14.0982 186.894 14.003 186.629 14.003C186.346 14.003 186.119 14.0982 185.949 14.2697C185.779 14.4411 185.704 14.6697 185.704 14.9364C185.704 15.165 185.798 15.4127 185.987 15.6413C186.176 15.889 186.459 16.1557 186.818 16.4795L188.254 17.7749C188.556 18.0417 188.858 18.3465 189.141 18.6513C189.425 18.9561 189.651 19.318 189.84 19.699C190.029 20.08 190.124 20.5373 190.124 21.0326C190.124 21.7184 189.972 22.2899 189.67 22.7471C189.368 23.2043 188.952 23.5663 188.442 23.7949C187.951 24.0997 187.385 24.214 186.742 24.214Z" fill="white"/>
<path d="M61.6791 40.1784H61.0747V32.1772H58.3169V31.6057H64.4369V32.1772H61.6791V40.1784Z" fill="white"/>
<path d="M69.9524 40.1784V36.0444C69.9524 35.3967 69.8202 34.9395 69.5557 34.6538C69.2913 34.368 68.8757 34.2156 68.309 34.2156C67.5535 34.2156 67.0057 34.4061 66.6468 34.7871C66.2879 35.1681 66.1179 35.7968 66.1179 36.654V40.1593H65.5513V31.0532H66.1179V33.9489L66.0802 34.7681H66.1179C66.3635 34.387 66.6468 34.1013 67.0057 33.9298C67.3646 33.7584 67.8179 33.6631 68.3468 33.6631C69.7824 33.6631 70.5002 34.4442 70.5002 35.9873V40.1593H69.9524V40.1784Z" fill="white"/>
<path d="M75.1091 40.2926C74.1835 40.2926 73.4846 40.0069 72.9557 39.4354C72.4457 38.8638 72.1813 38.0637 72.1813 37.035C72.1813 36.0253 72.4268 35.2062 72.9179 34.5965C73.4091 33.9869 74.0891 33.6821 74.9202 33.6821C75.6568 33.6821 76.2424 33.9488 76.6768 34.4632C77.1113 34.9776 77.3191 35.7015 77.3191 36.5968V37.0731H72.7668C72.7668 37.9494 72.9746 38.6162 73.3713 39.0734C73.7679 39.5306 74.3346 39.7592 75.0713 39.7592C75.4302 39.7592 75.7513 39.7402 76.0157 39.683C76.2802 39.6259 76.6391 39.5306 77.0546 39.3592V39.8926C76.6957 40.045 76.3746 40.1593 76.0724 40.2164C75.7702 40.2736 75.468 40.2926 75.1091 40.2926ZM74.9391 34.1965C74.3346 34.1965 73.8435 34.406 73.4846 34.8061C73.1257 35.2062 72.8991 35.7967 72.8424 36.5587H76.7335C76.7335 35.8158 76.5824 35.2443 76.2613 34.8252C75.9402 34.406 75.5057 34.1965 74.9391 34.1965Z" fill="white"/>
<path d="M87.4057 36.9779C87.4057 38.0256 87.1602 38.8257 86.6502 39.4163C86.1591 40.0069 85.4602 40.2926 84.5913 40.2926C84.0435 40.2926 83.5524 40.1593 83.1368 39.8926C82.7213 39.6259 82.4002 39.2448 82.1735 38.7305C81.9468 38.2352 81.8335 37.6446 81.8335 36.9779C81.8335 35.9301 82.0791 35.13 82.5891 34.5584C83.0802 33.9869 83.7791 33.6821 84.6479 33.6821C85.5168 33.6821 86.1968 33.9679 86.688 34.5584C87.1602 35.149 87.4057 35.9682 87.4057 36.9779ZM82.4191 36.9779C82.4191 37.8542 82.6079 38.54 82.9857 39.0162C83.3635 39.5116 83.9113 39.7592 84.6102 39.7592C85.3091 39.7592 85.8379 39.5116 86.2346 39.0162C86.6124 38.5209 86.8013 37.8351 86.8013 36.9779C86.8013 36.1015 86.6124 35.4157 86.2157 34.9395C85.838 34.4632 85.2902 34.2155 84.5913 34.2155C83.8924 34.2155 83.3635 34.4632 82.9857 34.9395C82.6079 35.4157 82.4191 36.1015 82.4191 36.9779Z" fill="white"/>
<path d="M89.6534 33.8157V37.9306C89.6534 38.5783 89.7857 39.0355 90.0501 39.3212C90.3145 39.607 90.7301 39.7594 91.2968 39.7594C92.0523 39.7594 92.6001 39.5689 92.959 39.1879C93.3179 38.8069 93.4879 38.1782 93.4879 37.3209V33.8157H94.0545V40.1785H93.5634L93.4501 39.3022H93.4123C92.9968 39.969 92.279 40.2928 91.2212 40.2928C89.7857 40.2928 89.0679 39.5117 89.0679 37.9687V33.8157H89.6534Z" fill="white"/>
<path d="M97.8324 39.7783C98.1913 39.7783 98.5124 39.7402 98.7769 39.6831V40.1593C98.4935 40.2546 98.1724 40.2927 97.8135 40.2927C97.2468 40.2927 96.8502 40.1403 96.5857 39.8355C96.3213 39.5307 96.1891 39.0544 96.1891 38.4257V34.3109H95.2446V33.968L96.1702 33.7012L96.4535 32.2534H96.7557V33.7965H98.6069V34.2918H96.7557V38.3305C96.7557 38.8258 96.8502 39.1878 97.0202 39.4164C97.1902 39.664 97.4546 39.7783 97.8324 39.7783Z" fill="white"/>
<path d="M104.066 38.5209C104.066 39.0924 103.858 39.5306 103.424 39.8354C102.989 40.1402 102.385 40.2926 101.591 40.2926C100.741 40.2926 100.08 40.1593 99.5891 39.8926V39.2639C100.231 39.5878 100.892 39.7402 101.591 39.7402C102.215 39.7402 102.687 39.6449 103.008 39.4354C103.329 39.2258 103.499 38.94 103.499 38.5971C103.499 38.2733 103.367 38.0066 103.121 37.797C102.876 37.5875 102.441 37.3589 101.856 37.1493C101.232 36.9207 100.779 36.7302 100.534 36.5587C100.288 36.3873 100.08 36.1968 99.948 35.9872C99.8158 35.7777 99.7591 35.53 99.7591 35.2252C99.7591 34.749 99.9669 34.3679 100.364 34.1012C100.76 33.8155 101.308 33.6821 102.026 33.6821C102.706 33.6821 103.348 33.8155 103.971 34.0631L103.764 34.5965C103.14 34.3298 102.574 34.2155 102.045 34.2155C101.535 34.2155 101.119 34.3108 100.817 34.4822C100.515 34.6537 100.364 34.9014 100.364 35.2062C100.364 35.53 100.477 35.7967 100.722 36.0063C100.949 36.1968 101.421 36.4254 102.101 36.673C102.668 36.8826 103.084 37.0731 103.348 37.2255C103.612 37.3779 103.801 37.5875 103.934 37.797C104.066 38.0066 104.066 38.2352 104.066 38.5209Z" fill="white"/>
<path d="M107.352 39.7783C107.711 39.7783 108.032 39.7402 108.297 39.6831V40.1593C108.014 40.2546 107.692 40.2927 107.334 40.2927C106.767 40.2927 106.37 40.1403 106.106 39.8355C105.841 39.5307 105.709 39.0544 105.709 38.4257V34.3109H104.784V33.968L105.709 33.7012L105.992 32.2534H106.295V33.7965H108.146V34.2918H106.295V38.3305C106.295 38.8258 106.389 39.1878 106.559 39.4164C106.71 39.664 106.994 39.7783 107.352 39.7783Z" fill="white"/>
<path d="M113.491 40.1783L113.34 39.1686H113.302C112.981 39.5877 112.66 39.8735 112.32 40.045C111.98 40.2164 111.584 40.2926 111.13 40.2926C110.507 40.2926 110.035 40.1402 109.676 39.8164C109.336 39.4925 109.166 39.0543 109.166 38.4828C109.166 37.8542 109.43 37.3779 109.94 37.035C110.45 36.6921 111.187 36.5016 112.169 36.4825L113.378 36.4444V36.0253C113.378 35.4157 113.265 34.9585 113.019 34.6537C112.774 34.3489 112.377 34.1965 111.848 34.1965C111.262 34.1965 110.658 34.3679 110.035 34.6918L109.827 34.1965C110.526 33.8726 111.206 33.7012 111.886 33.7012C112.585 33.7012 113.095 33.8917 113.435 34.2536C113.775 34.6156 113.945 35.1871 113.945 35.9491V40.1783H113.491ZM111.168 39.7592C111.848 39.7592 112.377 39.5687 112.755 39.1686C113.151 38.7876 113.34 38.2352 113.34 37.5494V36.9207L112.245 36.9588C111.357 36.9969 110.734 37.1493 110.356 37.3779C109.978 37.6065 109.789 37.9875 109.789 38.4828C109.789 38.8829 109.902 39.1877 110.148 39.4163C110.394 39.6449 110.734 39.7592 111.168 39.7592Z" fill="white"/>
<path d="M118.308 34.3109H116.816V40.1784H116.249V34.3109H115.078V33.968L116.249 33.7584V33.2631C116.249 32.482 116.4 31.9105 116.684 31.5486C116.967 31.1866 117.439 30.9961 118.081 30.9961C118.421 30.9961 118.78 31.0532 119.12 31.1485L118.988 31.6438C118.686 31.5486 118.365 31.4914 118.062 31.4914C117.609 31.4914 117.288 31.6248 117.099 31.8915C116.91 32.1582 116.816 32.5963 116.816 33.1869V33.7775H118.308V34.3109Z" fill="white"/>
<path d="M121.878 34.3109H120.386V40.1784H119.819V34.3109H118.648V33.968L119.819 33.7584V33.2631C119.819 32.482 119.97 31.9105 120.254 31.5486C120.537 31.1866 121.009 30.9961 121.651 30.9961C121.991 30.9961 122.35 31.0532 122.69 31.1485L122.558 31.6438C122.256 31.5486 121.935 31.4914 121.633 31.4914C121.179 31.4914 120.858 31.6248 120.669 31.8915C120.48 32.1582 120.386 32.5963 120.386 33.1869V33.7775H121.878V34.3109Z" fill="white"/>
<path d="M123.011 32.0439C123.011 31.6629 123.125 31.4724 123.37 31.4724C123.483 31.4724 123.578 31.5296 123.653 31.6248C123.729 31.7201 123.748 31.8534 123.748 32.0439C123.748 32.2154 123.71 32.3678 123.653 32.463C123.578 32.5583 123.483 32.6154 123.37 32.6154C123.143 32.6154 123.011 32.4249 123.011 32.0439ZM123.672 40.1785H123.106V33.8156H123.672V40.1785Z" fill="white"/>
<path d="M130.189 40.1783V36.0444C130.189 35.3967 130.057 34.9395 129.792 34.6537C129.528 34.3679 129.112 34.2155 128.546 34.2155C127.79 34.2155 127.242 34.406 126.884 34.7871C126.525 35.1681 126.355 35.7967 126.355 36.654V40.1593H125.788V33.7964H126.279L126.392 34.6728H126.43C126.846 34.006 127.564 33.6821 128.621 33.6821C130.057 33.6821 130.775 34.4632 130.775 36.0063V40.1783H130.189Z" fill="white"/>
<path d="M137.726 33.8155V34.2155L136.422 34.2917C136.762 34.7299 136.951 35.2062 136.951 35.7396C136.951 36.3492 136.744 36.8445 136.347 37.2255C135.95 37.6065 135.402 37.797 134.723 37.797C134.439 37.797 134.231 37.778 134.118 37.7589C133.891 37.8732 133.721 38.0256 133.589 38.178C133.476 38.3495 133.4 38.5209 133.4 38.6924C133.4 38.9019 133.476 39.0353 133.627 39.1305C133.778 39.2258 134.043 39.2639 134.401 39.2639H135.497C136.177 39.2639 136.706 39.3973 137.065 39.683C137.424 39.9688 137.612 40.3688 137.612 40.9213C137.612 41.5881 137.348 42.1024 136.8 42.4834C136.252 42.8644 135.497 43.0359 134.496 43.0359C133.703 43.0359 133.079 42.8835 132.645 42.5787C132.21 42.2739 131.984 41.8357 131.984 41.2832C131.984 40.8451 132.116 40.4831 132.38 40.1974C132.645 39.9116 133.023 39.7021 133.476 39.6068C133.287 39.5306 133.136 39.4163 133.023 39.2639C132.909 39.1115 132.853 38.94 132.853 38.7495C132.853 38.3304 133.117 37.9494 133.665 37.6256C133.306 37.4732 133.004 37.2255 132.796 36.9016C132.588 36.5778 132.494 36.1968 132.494 35.7777C132.494 35.149 132.701 34.6346 133.098 34.2536C133.495 33.8726 134.043 33.6821 134.723 33.6821C135.138 33.6821 135.459 33.7202 135.686 33.7964H137.726V33.8155ZM132.626 41.2642C132.626 42.1405 133.268 42.5787 134.553 42.5787C136.215 42.5787 137.046 42.0453 137.046 40.9784C137.046 40.5974 136.914 40.3117 136.649 40.1402C136.385 39.9688 135.969 39.8735 135.384 39.8735H134.345C133.193 39.8735 132.626 40.3307 132.626 41.2642ZM133.098 35.7967C133.098 36.292 133.249 36.673 133.551 36.9397C133.854 37.2065 134.25 37.3398 134.741 37.3398C135.27 37.3398 135.667 37.2065 135.95 36.9397C136.234 36.673 136.366 36.273 136.366 35.7777C136.366 35.2443 136.215 34.8252 135.931 34.5584C135.648 34.2917 135.233 34.1584 134.723 34.1584C134.213 34.1584 133.816 34.3108 133.533 34.5965C133.249 34.8633 133.098 35.2824 133.098 35.7967Z" fill="white"/>
<path d="M144.639 40.2926C143.732 40.2926 143.034 40.0069 142.524 39.4353C142.014 38.8638 141.749 38.0637 141.749 37.035C141.749 35.9872 142.014 35.1681 142.542 34.5775C143.071 33.9869 143.808 33.7012 144.715 33.7012C145.262 33.7012 145.791 33.7964 146.282 33.9869L146.131 34.5013C145.584 34.3108 145.111 34.2346 144.715 34.2346C143.94 34.2346 143.355 34.4822 142.958 34.9585C142.561 35.4348 142.354 36.1396 142.354 37.035C142.354 37.8923 142.561 38.559 142.958 39.0543C143.355 39.5496 143.921 39.7783 144.639 39.7783C145.206 39.7783 145.754 39.683 146.245 39.4734V40.0069C145.81 40.1974 145.281 40.2926 144.639 40.2926Z" fill="white"/>
<path d="M152.988 36.9779C152.988 38.0256 152.742 38.8257 152.232 39.4163C151.741 40.0069 151.042 40.2926 150.174 40.2926C149.626 40.2926 149.135 40.1593 148.719 39.8926C148.304 39.6259 147.982 39.2448 147.756 38.7305C147.529 38.2352 147.416 37.6446 147.416 36.9779C147.416 35.9301 147.661 35.13 148.171 34.5584C148.662 33.9869 149.361 33.6821 150.23 33.6821C151.099 33.6821 151.779 33.9679 152.27 34.5584C152.742 35.149 152.988 35.9682 152.988 36.9779ZM148.001 36.9779C148.001 37.8542 148.19 38.54 148.568 39.0162C148.946 39.5116 149.494 39.7592 150.192 39.7592C150.891 39.7592 151.42 39.5116 151.817 39.0162C152.195 38.5209 152.384 37.8351 152.384 36.9779C152.384 36.1015 152.195 35.4157 151.798 34.9395C151.42 34.4632 150.872 34.2155 150.174 34.2155C149.475 34.2155 148.946 34.4632 148.568 34.9395C148.19 35.4157 148.001 36.1015 148.001 36.9779Z" fill="white"/>
<path d="M162.621 40.1783V36.0063C162.621 35.3776 162.508 34.9394 162.262 34.6537C162.017 34.3679 161.658 34.2346 161.167 34.2346C160.525 34.2346 160.034 34.406 159.731 34.768C159.429 35.13 159.259 35.6824 159.259 36.4635V40.1974H158.674V35.8539C158.674 34.787 158.182 34.2346 157.219 34.2346C156.558 34.2346 156.067 34.4251 155.765 34.8251C155.462 35.2252 155.311 35.8348 155.311 36.6921V40.1974H154.745V33.8345H155.217L155.33 34.7108H155.368C155.538 34.387 155.784 34.1584 156.105 33.9679C156.426 33.7774 156.785 33.7012 157.162 33.7012C158.164 33.7012 158.787 34.0822 159.07 34.8251H159.089C159.297 34.4632 159.561 34.1774 159.92 33.9869C160.26 33.7964 160.657 33.7012 161.11 33.7012C161.79 33.7012 162.319 33.8917 162.659 34.2536C162.999 34.6156 163.169 35.2062 163.169 36.0253V40.1974H162.621V40.1783Z" fill="white"/>
<path d="M167.929 40.2926C166.966 40.2926 166.248 39.9307 165.795 39.1877H165.757L165.776 39.683C165.795 39.9688 165.795 40.2926 165.795 40.6355V43.0549H165.228V33.8155H165.719L165.832 34.7299H165.87C166.305 34.0441 167.004 33.7012 167.948 33.7012C168.798 33.7012 169.44 33.9869 169.894 34.5394C170.347 35.1109 170.574 35.9301 170.574 36.9969C170.574 38.0447 170.347 38.8638 169.875 39.4353C169.384 40.0069 168.741 40.2926 167.929 40.2926ZM167.91 39.7783C168.552 39.7783 169.062 39.5306 169.402 39.0543C169.742 38.5781 169.931 37.8923 169.931 37.0159C169.931 35.149 169.27 34.2155 167.929 34.2155C167.192 34.2155 166.645 34.4251 166.305 34.8251C165.965 35.2252 165.795 35.892 165.795 36.8254V37.0159C165.795 38.0066 165.965 38.7305 166.286 39.1496C166.626 39.5687 167.174 39.7783 167.91 39.7783Z" fill="white"/>
<path d="M176.146 40.1783L175.995 39.1686H175.957C175.636 39.5877 175.315 39.8735 174.975 40.045C174.635 40.2164 174.238 40.2926 173.785 40.2926C173.161 40.2926 172.689 40.1402 172.33 39.8164C171.99 39.4925 171.82 39.0543 171.82 38.4828C171.82 37.8542 172.085 37.3779 172.595 37.035C173.105 36.6921 173.841 36.5016 174.824 36.4825L176.033 36.4444V36.0253C176.033 35.4157 175.919 34.9585 175.674 34.6537C175.428 34.3489 175.031 34.1965 174.503 34.1965C173.917 34.1965 173.313 34.3679 172.689 34.6918L172.481 34.1965C173.18 33.8726 173.86 33.7012 174.54 33.7012C175.239 33.7012 175.749 33.8917 176.089 34.2536C176.429 34.6156 176.599 35.1871 176.599 35.9491V40.1783H176.146ZM173.823 39.7592C174.503 39.7592 175.031 39.5687 175.409 39.1686C175.806 38.7876 175.995 38.2352 175.995 37.5494V36.9207L174.899 36.9588C174.011 36.9969 173.388 37.1493 173.01 37.3779C172.633 37.6065 172.444 37.9875 172.444 38.4828C172.444 38.8829 172.557 39.1877 172.803 39.4163C173.048 39.6449 173.369 39.7592 173.823 39.7592Z" fill="white"/>
<path d="M183.002 40.1783V36.0444C183.002 35.3967 182.87 34.9395 182.606 34.6537C182.341 34.3679 181.926 34.2155 181.359 34.2155C180.604 34.2155 180.056 34.406 179.697 34.7871C179.338 35.1681 179.168 35.7967 179.168 36.654V40.1593H178.601V33.7964H179.092L179.206 34.6728H179.244C179.659 34.006 180.377 33.6821 181.435 33.6821C182.87 33.6821 183.588 34.4632 183.588 36.0063V40.1783H183.002Z" fill="white"/>
<path d="M184.57 33.8157H185.156L186.497 37.3972C186.913 38.5021 187.158 39.226 187.271 39.6261H187.309C187.479 39.1307 187.744 38.3687 188.103 37.3781L189.444 33.8347H190.029L187.196 41.2263C186.969 41.8359 186.78 42.236 186.629 42.4455C186.478 42.6551 186.289 42.8075 186.081 42.9218C185.874 43.0361 185.628 43.0742 185.326 43.0742C185.099 43.0742 184.854 43.0361 184.589 42.9599V42.4646C184.816 42.5217 185.061 42.5598 185.307 42.5598C185.496 42.5598 185.685 42.5217 185.836 42.4265C185.987 42.3312 186.119 42.1788 186.251 41.9883C186.384 41.7978 186.516 41.4739 186.667 41.0548C186.818 40.6357 186.931 40.35 186.969 40.2166L184.57 33.8157Z" fill="white"/>
<path d="M20.9546 18.1943C15.8735 20.6899 11.3213 24.0808 7.48682 28.1957V10.3645L20.9546 18.1943ZM1.72571 48.7702C3.99237 40.8261 8.5446 33.8727 14.6268 28.6529L26.149 48.7702H32.8168L19.3113 25.1857C23.8446 22.2901 28.9824 20.2707 34.4979 19.3563L1.72571 0.286865V48.7702Z" fill="white"/>
<path d="M40.7124 20.7471H49.798V28.0053H23.1457L21.918 25.8716C27.4713 22.6902 33.8746 20.8423 40.7124 20.7471Z" fill="white"/>
<path d="M30.8713 41.4929L35.0458 48.7702H49.798V41.4929H30.8713Z" fill="white"/>
<path d="M5.56018 0.286865L18.0646 7.54507H49.7979V0.286865H5.56018Z" fill="white"/>
<g opacity="0.3">
<g opacity="0.3">
<path opacity="0.3" d="M4.61572 1.23926L17.1202 8.49747H48.8535V1.23926H4.61572Z" fill="black"/>
<path opacity="0.3" d="M20.0103 19.1466C14.9291 21.6422 10.3769 25.0332 6.54248 29.1481V11.3169L20.0103 19.1466ZM0.781372 49.7225C3.04804 41.7785 7.60026 34.8251 13.6825 29.6053L25.2047 49.7225H31.8725L18.3669 26.1381C22.9003 23.2425 28.038 21.2231 33.5536 20.3087L0.781372 1.23926V49.7225Z" fill="black"/>
<path opacity="0.3" d="M39.7681 21.6995H48.8536V28.9577H22.2014L20.9736 26.824C26.527 23.6426 32.9303 21.7947 39.7681 21.6995Z" fill="black"/>
<path opacity="0.3" d="M29.927 42.4453L34.1015 49.7226H48.8537V42.4453H29.927Z" fill="black"/>
</g>
</g>
</svg>
