<svg width="14" height="14" viewBox="0 0 14 14" fill="none" xmlns="http://www.w3.org/2000/svg">
<path d="M11.969 4.73721L3.19306 0.291384C2.85684 0.100404 2.47679 0 2.09011 0C1.70344 0 1.32339 0.100404 0.987168 0.291384C0.658474 0.515454 0.394736 0.822302 0.222594 1.18093C0.0504523 1.53956 -0.0239954 1.93727 0.00677125 2.33388V11.1711C-0.0226008 11.5675 0.0524672 11.9647 0.22449 12.3231C0.396513 12.6815 0.659479 12.9885 0.987168 13.2136C1.29102 13.3966 1.64008 13.491 1.9948 13.4859C2.41266 13.4787 2.82305 13.3738 3.19306 13.1795L11.969 8.74731C13.2694 8.06647 13.46 7.22224 13.46 6.75928C13.46 6.29631 13.2694 5.39762 11.969 4.73721ZM11.3494 7.50138L2.58031 11.9472C2.45099 12.0328 2.30248 12.0851 2.14804 12.0993C1.99361 12.1136 1.83804 12.0894 1.69523 12.0289C1.57442 11.9238 1.48138 11.7906 1.42438 11.6409C1.36738 11.4913 1.34816 11.3299 1.36843 11.1711V2.27941C1.34816 2.12057 1.36738 1.95919 1.42438 1.80955C1.48138 1.65992 1.57442 1.52665 1.69523 1.42156C1.77864 1.37501 1.87208 1.34931 1.96756 1.34667C2.17279 1.35487 2.37327 1.41082 2.55308 1.51007L11.3494 5.9559C11.8124 6.18738 12.0983 6.48695 12.0983 6.72524C12.0983 6.96353 11.8124 7.26309 11.3494 7.50138Z" fill="#EF1867"/>
</svg>
