<svg width="46" height="46" viewBox="0 0 46 46" fill="none" xmlns="http://www.w3.org/2000/svg">
<circle cx="23" cy="23" r="21.5" stroke="#E0E0E0" stroke-width="3"/>
<path d="M20.4667 24.2637C20.3841 24.2637 18.5669 24.2637 17.7408 24.2637C17.3003 24.2637 17.1626 24.0985 17.1626 23.6855C17.1626 22.5841 17.1626 21.4552 17.1626 20.3538C17.1626 19.9133 17.3278 19.7756 17.7408 19.7756H20.4667C20.4667 19.693 20.4667 18.096 20.4667 17.3526C20.4667 16.2512 20.6595 15.2049 21.2101 14.2412C21.7884 13.25 22.6144 12.5891 23.6607 12.2037C24.3491 11.9558 25.0374 11.8457 25.7809 11.8457H28.4792C28.8647 11.8457 29.0299 12.0109 29.0299 12.3964V15.5353C29.0299 15.9208 28.8647 16.086 28.4792 16.086C27.7358 16.086 26.9924 16.086 26.2489 16.1135C25.5055 16.1135 25.12 16.4715 25.12 17.2425C25.0925 18.0685 25.12 18.867 25.12 19.7205H28.314C28.7546 19.7205 28.9198 19.8858 28.9198 20.3263V23.658C28.9198 24.0985 28.7821 24.2362 28.314 24.2362C27.3228 24.2362 25.2026 24.2362 25.12 24.2362V33.2124C25.12 33.6805 24.9824 33.8457 24.4867 33.8457C23.3303 33.8457 22.2014 33.8457 21.0449 33.8457C20.6319 33.8457 20.4667 33.6805 20.4667 33.2675C20.4667 30.3764 20.4667 24.3463 20.4667 24.2637Z" fill="#E0E0E0"/>
</svg>
