<svg width="46" height="46" viewBox="0 0 46 46" fill="none" xmlns="http://www.w3.org/2000/svg">
<circle cx="23" cy="23" r="21.5" stroke="#E0E0E0" stroke-width="3"/>
<path d="M33.9398 18.4681C33.8883 17.2991 33.6993 16.4955 33.4285 15.7991C33.1491 15.0599 32.7193 14.3982 32.1563 13.848C31.6061 13.2893 30.94 12.8552 30.2094 12.5802C29.509 12.3094 28.7095 12.1204 27.5406 12.0688C26.3629 12.0129 25.9891 12 23.0021 12C20.0152 12 19.6414 12.0129 18.4681 12.0645C17.2991 12.116 16.4955 12.3052 15.7993 12.5758C15.0599 12.8552 14.3982 13.2849 13.848 13.848C13.2893 14.3982 12.8553 15.0643 12.5802 15.7949C12.3094 16.4955 12.1204 17.2947 12.0688 18.4637C12.0129 19.6414 12 20.0152 12 23.0021C12 25.989 12.0129 26.3629 12.0645 27.5362C12.116 28.7052 12.3052 29.5088 12.576 30.2052C12.8553 30.9443 13.2893 31.6061 13.848 32.1563C14.3982 32.715 15.0643 33.1491 15.7949 33.4241C16.4955 33.6949 17.2947 33.8839 18.4639 33.9355C19.637 33.9872 20.011 33.9999 22.9979 33.9999C25.9849 33.9999 26.3587 33.9872 27.532 33.9355C28.701 33.8839 29.5046 33.6949 30.2008 33.4241C31.6793 32.8525 32.8483 31.6835 33.4199 30.2052C33.6905 29.5046 33.8797 28.7052 33.9313 27.5362C33.9828 26.3629 33.9957 25.989 33.9957 23.0021C33.9957 20.0152 33.9914 19.6414 33.9398 18.4681ZM31.9587 27.4503C31.9113 28.5247 31.7309 29.1049 31.5804 29.4917C31.2108 30.4501 30.4501 31.2108 29.4917 31.5804C29.1049 31.7309 28.5205 31.9113 27.4503 31.9585C26.2899 32.0102 25.9419 32.023 23.0065 32.023C20.0711 32.023 19.7188 32.0102 18.5626 31.9585C17.4881 31.9113 16.908 31.7309 16.5212 31.5804C16.0442 31.4042 15.6101 31.1248 15.2577 30.7595C14.8924 30.4028 14.613 29.973 14.4368 29.496C14.2863 29.1093 14.1059 28.5247 14.0587 27.4546C14.007 26.2943 13.9942 25.9461 13.9942 23.0107C13.9942 20.0753 14.007 19.723 14.0587 18.5669C14.1059 17.4925 14.2863 16.9123 14.4368 16.5255C14.613 16.0484 14.8924 15.6144 15.2621 15.2619C15.6186 14.8966 16.0484 14.6172 16.5255 14.4411C16.9123 14.2907 17.4969 14.1102 18.5669 14.0629C19.7273 14.0114 20.0755 13.9984 23.0107 13.9984C25.9504 13.9984 26.2985 14.0114 27.4546 14.0629C28.5291 14.1102 29.1093 14.2907 29.4961 14.4411C29.973 14.6172 30.4071 14.8966 30.7595 15.2619C31.1248 15.6186 31.4042 16.0484 31.5804 16.5255C31.7309 16.9123 31.9113 17.4967 31.9587 18.5669C32.0102 19.7273 32.0231 20.0753 32.0231 23.0107C32.0231 25.9461 32.0102 26.2899 31.9587 27.4503Z" fill="#E0E0E0"/>
<path d="M23.0021 17.3506C19.882 17.3506 17.3506 19.8819 17.3506 23.0021C17.3506 26.1223 19.882 28.6536 23.0021 28.6536C26.1223 28.6536 28.6536 26.1223 28.6536 23.0021C28.6536 19.8819 26.1223 17.3506 23.0021 17.3506ZM23.0021 26.6681C20.978 26.6681 19.3361 25.0264 19.3361 23.0021C19.3361 20.9778 20.978 19.3361 23.0021 19.3361C25.0264 19.3361 26.6681 20.9778 26.6681 23.0021C26.6681 25.0264 25.0264 26.6681 23.0021 26.6681Z" fill="#E0E0E0"/>
<path d="M30.1965 17.127C30.1965 17.8556 29.6058 18.4464 28.877 18.4464C28.1484 18.4464 27.5576 17.8556 27.5576 17.127C27.5576 16.3982 28.1484 15.8076 28.877 15.8076C29.6058 15.8076 30.1965 16.3982 30.1965 17.127Z" fill="#E0E0E0"/>
</svg>
