<svg width="46" height="46" viewBox="0 0 46 46" fill="none" xmlns="http://www.w3.org/2000/svg">
<circle cx="23" cy="23" r="21.5" stroke="#E0E0E0" stroke-width="3"/>
<path d="M32.8886 27.4105L32.8723 27.5463C28.8887 25.5609 28.472 25.2964 27.9575 26.0681C27.6006 26.6025 26.5608 27.8145 26.2474 28.1732C25.9303 28.5264 25.6151 28.5536 25.0771 28.309C24.5336 28.0373 22.789 27.4666 20.7238 25.6188C19.1151 24.1786 18.0354 22.4123 17.7166 21.8688C17.1858 20.9522 18.2963 20.8217 19.3072 18.9087C19.4883 18.5283 19.3959 18.2294 19.2619 17.9594C19.126 17.6877 18.0445 15.0247 17.5916 13.9631C17.1568 12.9051 16.7094 13.0392 16.3742 13.0392C15.3307 12.9486 14.5681 12.9631 13.896 13.6624C10.9721 16.8761 11.7094 20.1913 14.2112 23.7167C19.1278 30.1514 21.7474 31.3362 26.5372 32.9811C27.8307 33.3923 29.01 33.3344 29.943 33.2003C30.9829 33.0354 33.1441 31.8941 33.5952 30.617C34.0571 29.3398 34.0571 28.28 33.9212 28.0355C33.7872 27.7909 33.4321 27.655 32.8886 27.4105Z" fill="#E0E0E0"/>
</svg>
